<svg width="1808" height="808" viewBox="0 0 1808 808" fill="none" xmlns="http://www.w3.org/2000/svg">
<g filter="url(#filter0_d)">
<mask id="mask0" style="mask-type:alpha" maskUnits="userSpaceOnUse" x="4" y="0" width="1800" height="800">
<rect x="4" width="1800" height="800" rx="10" fill="#4885ED"/>
</mask>
<g mask="url(#mask0)">
<rect x="4" width="1800" height="800" rx="10" fill="#4885ED"/>
<ellipse cx="1315.5" cy="576" rx="668.5" ry="375" fill="#48DEFF" fill-opacity="0.36"/>
<path d="M1711.5 621C1711.5 748.499 1213.47 777 848.364 777C483.253 777 84.5 301.499 84.5 174C84.5 46.5011 483.253 18 848.364 18C1213.47 18 1711.5 493.501 1711.5 621Z" fill="#4030FF" fill-opacity="0.4"/>
<path d="M571 290.5C571 251.834 557.745 214.036 532.912 181.886C508.079 149.736 472.783 124.678 431.486 109.882C390.19 95.0846 344.749 91.2131 300.91 98.7565C257.07 106.3 216.801 124.919 185.194 152.261C153.587 179.602 132.063 214.437 123.343 252.36C114.622 290.283 119.098 329.592 136.203 365.315C153.309 401.038 182.276 431.57 219.441 453.052C256.607 474.534 300.301 486 345 486V347.635C331.937 347.635 319.167 344.284 308.305 338.006C297.444 331.728 288.978 322.805 283.979 312.365C278.98 301.925 277.672 290.437 280.221 279.354C282.769 268.27 289.06 258.09 298.297 250.1C307.534 242.109 319.302 236.668 332.115 234.463C344.927 232.258 358.207 233.39 370.276 237.714C382.344 242.039 392.66 249.362 399.917 258.758C407.175 268.153 411.048 279.2 411.048 290.5H571Z" fill="#6DEFF8" fill-opacity="0.38"/>
</g>
</g>
<defs>
<filter id="filter0_d" x="0" y="0" width="1808" height="808" filterUnits="userSpaceOnUse" color-interpolation-filters="sRGB">
<feFlood flood-opacity="0" result="BackgroundImageFix"/>
<feColorMatrix in="SourceAlpha" type="matrix" values="0 0 0 0 0 0 0 0 0 0 0 0 0 0 0 0 0 0 127 0" result="hardAlpha"/>
<feOffset dy="4"/>
<feGaussianBlur stdDeviation="2"/>
<feComposite in2="hardAlpha" operator="out"/>
<feColorMatrix type="matrix" values="0 0 0 0 0 0 0 0 0 0 0 0 0 0 0 0 0 0 0.7 0"/>
<feBlend mode="normal" in2="BackgroundImageFix" result="effect1_dropShadow"/>
<feBlend mode="normal" in="SourceGraphic" in2="effect1_dropShadow" result="shape"/>
</filter>
</defs>
</svg>
