<svg width="1808" height="808" viewBox="0 0 1808 808" fill="none" xmlns="http://www.w3.org/2000/svg">
<g filter="url(#filter0_d)">
<mask id="mask0" style="mask-type:alpha" maskUnits="userSpaceOnUse" x="4" y="0" width="1800" height="800">
<rect x="4" width="1800" height="800" rx="10" fill="#3CBA54"/>
</mask>
<g mask="url(#mask0)">
<rect x="4" width="1800" height="800" rx="10" fill="#3CBA54"/>
<path d="M1560.73 57.6569C1538.07 12.9587 1503.54 -25.0989 1459.35 -54.0736C1415.15 -83.0482 1362.28 -102.3 1304.11 -110.593C1245.94 -118.886 1183.77 -116.037 1121.58 -102.229C1059.4 -88.421 998.567 -63.9592 943.001 -30.4133C887.435 3.13255 838.359 45.0214 798.923 92.5649C759.487 140.108 730.561 192.256 714.003 245.662C697.445 299.067 693.619 352.551 702.773 402.68C711.926 452.809 733.855 498.475 767.154 536.75L905.853 438.213C884.789 414.002 870.918 385.115 865.128 353.405C859.338 321.695 861.757 287.863 872.231 254.081C882.706 220.298 901.003 187.311 925.949 157.237C950.895 127.162 981.939 100.665 1017.09 79.4446C1052.24 58.2246 1090.72 42.7508 1130.05 34.0164C1169.39 25.282 1208.72 23.4799 1245.51 28.7257C1282.31 33.9716 1315.76 46.1495 1343.71 64.4779C1371.67 82.8063 1393.51 106.88 1407.85 135.155L1560.73 57.6569Z" fill="#49AC31" fill-opacity="0.42"/>
<path d="M1496 391C1496 465.332 1470.9 538.516 1422.91 604.071C1374.92 669.626 1305.54 725.528 1220.9 766.824C1136.26 808.121 1038.98 833.538 937.673 840.823C836.368 848.109 734.165 837.039 640.119 808.594C546.073 780.148 463.085 735.205 398.507 677.746C333.928 620.286 289.753 552.084 269.894 479.181C250.035 406.277 255.104 330.922 284.654 259.791C314.203 188.66 367.321 123.948 439.301 71.3878L586.732 179.043C538.997 213.9 503.771 256.815 484.175 303.987C464.578 351.158 461.216 401.131 474.386 449.479C487.556 497.826 516.852 543.056 559.678 581.161C602.504 619.266 657.539 649.071 719.908 667.935C782.277 686.799 850.054 694.141 917.236 689.309C984.418 684.477 1048.93 667.621 1105.06 640.235C1161.19 612.848 1207.21 575.776 1239.03 532.302C1270.85 488.828 1287.5 440.295 1287.5 391H1496Z" fill="#7BFB5B" fill-opacity="0.4"/>
</g>
</g>
<defs>
<filter id="filter0_d" x="0" y="0" width="1808" height="808" filterUnits="userSpaceOnUse" color-interpolation-filters="sRGB">
<feFlood flood-opacity="0" result="BackgroundImageFix"/>
<feColorMatrix in="SourceAlpha" type="matrix" values="0 0 0 0 0 0 0 0 0 0 0 0 0 0 0 0 0 0 127 0" result="hardAlpha"/>
<feOffset dy="4"/>
<feGaussianBlur stdDeviation="2"/>
<feComposite in2="hardAlpha" operator="out"/>
<feColorMatrix type="matrix" values="0 0 0 0 0 0 0 0 0 0 0 0 0 0 0 0 0 0 0.7 0"/>
<feBlend mode="normal" in2="BackgroundImageFix" result="effect1_dropShadow"/>
<feBlend mode="normal" in="SourceGraphic" in2="effect1_dropShadow" result="shape"/>
</filter>
</defs>
</svg>
