<svg width="200" height="100" viewBox="0 0 200 100" fill="none" xmlns="http://www.w3.org/2000/svg">
<rect width="200" height="100" rx="10" fill="#E72D13"/>
<path d="M73.926 61.21C72.546 61.21 71.326 60.97 70.266 60.49C69.226 60.01 68.406 59.34 67.806 58.48C67.206 57.62 66.886 56.66 66.846 55.6H69.066C69.166 56.62 69.616 57.52 70.416 58.3C71.216 59.06 72.386 59.44 73.926 59.44C75.346 59.44 76.466 59.08 77.286 58.36C78.126 57.62 78.546 56.69 78.546 55.57C78.546 54.67 78.316 53.95 77.856 53.41C77.396 52.85 76.826 52.44 76.146 52.18C75.466 51.9 74.526 51.6 73.326 51.28C71.926 50.9 70.816 50.53 69.996 50.17C69.176 49.81 68.476 49.25 67.896 48.49C67.316 47.73 67.026 46.7 67.026 45.4C67.026 44.32 67.306 43.36 67.866 42.52C68.426 41.66 69.216 40.99 70.236 40.51C71.256 40.03 72.426 39.79 73.746 39.79C75.686 39.79 77.246 40.27 78.426 41.23C79.626 42.17 80.316 43.39 80.496 44.89H78.216C78.076 44.03 77.606 43.27 76.806 42.61C76.006 41.93 74.926 41.59 73.566 41.59C72.306 41.59 71.256 41.93 70.416 42.61C69.576 43.27 69.156 44.18 69.156 45.34C69.156 46.22 69.386 46.93 69.846 47.47C70.306 48.01 70.876 48.42 71.556 48.7C72.256 48.98 73.196 49.28 74.376 49.6C75.736 49.98 76.836 50.36 77.676 50.74C78.516 51.1 79.226 51.66 79.806 52.42C80.386 53.18 80.676 54.2 80.676 55.48C80.676 56.46 80.416 57.39 79.896 58.27C79.376 59.15 78.606 59.86 77.586 60.4C76.566 60.94 75.346 61.21 73.926 61.21ZM87.464 46.39V56.56C87.464 57.56 87.654 58.25 88.034 58.63C88.414 59.01 89.084 59.2 90.044 59.2H91.964V61H89.714C88.234 61 87.134 60.66 86.414 59.98C85.694 59.28 85.334 58.14 85.334 56.56V46.39H83.054V44.62H85.334V40.51H87.464V44.62H91.964V46.39H87.464ZM94.4673 52.78C94.4673 51.1 94.7973 49.63 95.4573 48.37C96.1373 47.09 97.0673 46.11 98.2473 45.43C99.4473 44.73 100.797 44.38 102.297 44.38C103.857 44.38 105.197 44.74 106.317 45.46C107.457 46.18 108.277 47.1 108.777 48.22V44.62H110.877V61H108.777V57.37C108.257 58.49 107.427 59.42 106.287 60.16C105.167 60.88 103.827 61.24 102.267 61.24C100.787 61.24 99.4473 60.89 98.2473 60.19C97.0673 59.49 96.1373 58.5 95.4573 57.22C94.7973 55.94 94.4673 54.46 94.4673 52.78ZM108.777 52.81C108.777 51.49 108.507 50.33 107.967 49.33C107.427 48.33 106.687 47.56 105.747 47.02C104.827 46.48 103.807 46.21 102.687 46.21C101.527 46.21 100.487 46.47 99.5673 46.99C98.6473 47.51 97.9173 48.27 97.3773 49.27C96.8573 50.25 96.5973 51.42 96.5973 52.78C96.5973 54.12 96.8573 55.3 97.3773 56.32C97.9173 57.32 98.6473 58.09 99.5673 58.63C100.487 59.15 101.527 59.41 102.687 59.41C103.807 59.41 104.827 59.14 105.747 58.6C106.687 58.06 107.427 57.29 107.967 56.29C108.507 55.29 108.777 54.13 108.777 52.81ZM117.771 47.53C118.231 46.51 118.931 45.72 119.871 45.16C120.831 44.6 122.001 44.32 123.381 44.32V46.51H122.811C121.291 46.51 120.071 46.92 119.151 47.74C118.231 48.56 117.771 49.93 117.771 51.85V61H115.671V44.62H117.771V47.53ZM129.271 46.39V56.56C129.271 57.56 129.461 58.25 129.841 58.63C130.221 59.01 130.891 59.2 131.851 59.2H133.771V61H131.521C130.041 61 128.941 60.66 128.221 59.98C127.501 59.28 127.141 58.14 127.141 56.56V46.39H124.861V44.62H127.141V40.51H129.271V44.62H133.771V46.39H129.271Z" fill="black"/>
</svg>
