<svg width="814" height="135" viewBox="0 0 814 135" fill="none" xmlns="http://www.w3.org/2000/svg">
<rect x="429" width="200" height="100" rx="10" fill="#E72D13"/>
<path d="M502.926 61.21C501.546 61.21 500.326 60.97 499.266 60.49C498.226 60.01 497.406 59.34 496.806 58.48C496.206 57.62 495.886 56.66 495.846 55.6H498.066C498.166 56.62 498.616 57.52 499.416 58.3C500.216 59.06 501.386 59.44 502.926 59.44C504.346 59.44 505.466 59.08 506.286 58.36C507.126 57.62 507.546 56.69 507.546 55.57C507.546 54.67 507.316 53.95 506.856 53.41C506.396 52.85 505.826 52.44 505.146 52.18C504.466 51.9 503.526 51.6 502.326 51.28C500.926 50.9 499.816 50.53 498.996 50.17C498.176 49.81 497.476 49.25 496.896 48.49C496.316 47.73 496.026 46.7 496.026 45.4C496.026 44.32 496.306 43.36 496.866 42.52C497.426 41.66 498.216 40.99 499.236 40.51C500.256 40.03 501.426 39.79 502.746 39.79C504.686 39.79 506.246 40.27 507.426 41.23C508.626 42.17 509.316 43.39 509.496 44.89H507.216C507.076 44.03 506.606 43.27 505.806 42.61C505.006 41.93 503.926 41.59 502.566 41.59C501.306 41.59 500.256 41.93 499.416 42.61C498.576 43.27 498.156 44.18 498.156 45.34C498.156 46.22 498.386 46.93 498.846 47.47C499.306 48.01 499.876 48.42 500.556 48.7C501.256 48.98 502.196 49.28 503.376 49.6C504.736 49.98 505.836 50.36 506.676 50.74C507.516 51.1 508.226 51.66 508.806 52.42C509.386 53.18 509.676 54.2 509.676 55.48C509.676 56.46 509.416 57.39 508.896 58.27C508.376 59.15 507.606 59.86 506.586 60.4C505.566 60.94 504.346 61.21 502.926 61.21ZM516.464 46.39V56.56C516.464 57.56 516.654 58.25 517.034 58.63C517.414 59.01 518.084 59.2 519.044 59.2H520.964V61H518.714C517.234 61 516.134 60.66 515.414 59.98C514.694 59.28 514.334 58.14 514.334 56.56V46.39H512.054V44.62H514.334V40.51H516.464V44.62H520.964V46.39H516.464ZM523.467 52.78C523.467 51.1 523.797 49.63 524.457 48.37C525.137 47.09 526.067 46.11 527.247 45.43C528.447 44.73 529.797 44.38 531.297 44.38C532.857 44.38 534.197 44.74 535.317 45.46C536.457 46.18 537.277 47.1 537.777 48.22V44.62H539.877V61H537.777V57.37C537.257 58.49 536.427 59.42 535.287 60.16C534.167 60.88 532.827 61.24 531.267 61.24C529.787 61.24 528.447 60.89 527.247 60.19C526.067 59.49 525.137 58.5 524.457 57.22C523.797 55.94 523.467 54.46 523.467 52.78ZM537.777 52.81C537.777 51.49 537.507 50.33 536.967 49.33C536.427 48.33 535.687 47.56 534.747 47.02C533.827 46.48 532.807 46.21 531.687 46.21C530.527 46.21 529.487 46.47 528.567 46.99C527.647 47.51 526.917 48.27 526.377 49.27C525.857 50.25 525.597 51.42 525.597 52.78C525.597 54.12 525.857 55.3 526.377 56.32C526.917 57.32 527.647 58.09 528.567 58.63C529.487 59.15 530.527 59.41 531.687 59.41C532.807 59.41 533.827 59.14 534.747 58.6C535.687 58.06 536.427 57.29 536.967 56.29C537.507 55.29 537.777 54.13 537.777 52.81ZM546.771 47.53C547.231 46.51 547.931 45.72 548.871 45.16C549.831 44.6 551.001 44.32 552.381 44.32V46.51H551.811C550.291 46.51 549.071 46.92 548.151 47.74C547.231 48.56 546.771 49.93 546.771 51.85V61H544.671V44.62H546.771V47.53ZM558.271 46.39V56.56C558.271 57.56 558.461 58.25 558.841 58.63C559.221 59.01 559.891 59.2 560.851 59.2H562.771V61H560.521C559.041 61 557.941 60.66 557.221 59.98C556.501 59.28 556.141 58.14 556.141 56.56V46.39H553.861V44.62H556.141V40.51H558.271V44.62H562.771V46.39H558.271Z" fill="black"/>
<path d="M10.584 38.9082C13.32 38.9082 15.684 39.4242 17.676 40.4562C19.692 41.4642 21.228 42.9162 22.284 44.8122C23.364 46.7082 23.904 48.9402 23.904 51.5082C23.904 54.0762 23.364 56.3082 22.284 58.2042C21.228 60.0762 19.692 61.5162 17.676 62.5242C15.684 63.5082 13.32 64.0002 10.584 64.0002H2.772V38.9082H10.584ZM10.584 61.3002C13.824 61.3002 16.296 60.4482 18 58.7442C19.704 57.0162 20.556 54.6042 20.556 51.5082C20.556 48.3882 19.692 45.9522 17.964 44.2002C16.26 42.4482 13.8 41.5722 10.584 41.5722H6.048V61.3002H10.584ZM29.9171 41.0682C29.2931 41.0682 28.7651 40.8522 28.3331 40.4202C27.9011 39.9882 27.6851 39.4602 27.6851 38.8362C27.6851 38.2122 27.9011 37.6842 28.3331 37.2522C28.7651 36.8202 29.2931 36.6042 29.9171 36.6042C30.5171 36.6042 31.0211 36.8202 31.4291 37.2522C31.8611 37.6842 32.0771 38.2122 32.0771 38.8362C32.0771 39.4602 31.8611 39.9882 31.4291 40.4202C31.0211 40.8522 30.5171 41.0682 29.9171 41.0682ZM31.5011 44.2722V64.0002H28.2251V44.2722H31.5011ZM44.0685 64.3242C42.5565 64.3242 41.2005 64.0722 40.0005 63.5682C38.8005 63.0402 37.8525 62.3202 37.1565 61.4082C36.4605 60.4722 36.0765 59.4042 36.0045 58.2042H39.3885C39.4845 59.1882 39.9405 59.9922 40.7565 60.6162C41.5965 61.2402 42.6885 61.5522 44.0325 61.5522C45.2805 61.5522 46.2645 61.2762 46.9845 60.7242C47.7045 60.1722 48.0645 59.4762 48.0645 58.6362C48.0645 57.7722 47.6805 57.1362 46.9125 56.7282C46.1445 56.2962 44.9565 55.8762 43.3485 55.4682C41.8845 55.0842 40.6845 54.7002 39.7485 54.3162C38.8365 53.9082 38.0445 53.3202 37.3725 52.5522C36.7245 51.7602 36.4005 50.7282 36.4005 49.4562C36.4005 48.4482 36.7005 47.5242 37.3005 46.6842C37.9005 45.8442 38.7525 45.1842 39.8565 44.7042C40.9605 44.2002 42.2205 43.9482 43.6365 43.9482C45.8205 43.9482 47.5845 44.5002 48.9285 45.6042C50.2725 46.7082 50.9925 48.2202 51.0885 50.1402H47.8125C47.7405 49.1082 47.3205 48.2802 46.5525 47.6562C45.8085 47.0322 44.8005 46.7202 43.5285 46.7202C42.3525 46.7202 41.4165 46.9722 40.7205 47.4762C40.0245 47.9802 39.6765 48.6402 39.6765 49.4562C39.6765 50.1042 39.8805 50.6442 40.2885 51.0762C40.7205 51.4842 41.2485 51.8202 41.8725 52.0842C42.5205 52.3242 43.4085 52.6002 44.5365 52.9122C45.9525 53.2962 47.1045 53.6802 47.9925 54.0642C48.8805 54.4242 49.6365 54.9762 50.2605 55.7202C50.9085 56.4642 51.2445 57.4362 51.2685 58.6362C51.2685 59.7162 50.9685 60.6882 50.3685 61.5522C49.7685 62.4162 48.9165 63.1002 47.8125 63.6042C46.7325 64.0842 45.4845 64.3242 44.0685 64.3242ZM54.6691 54.1002C54.6691 52.0602 55.0771 50.2842 55.8931 48.7722C56.7091 47.2362 57.8371 46.0482 59.2771 45.2082C60.7411 44.3682 62.4091 43.9482 64.2811 43.9482C66.7051 43.9482 68.6971 44.5362 70.2571 45.7122C71.8411 46.8882 72.8851 48.5202 73.3891 50.6082H69.8611C69.5251 49.4082 68.8651 48.4602 67.8811 47.7642C66.9211 47.0682 65.7211 46.7202 64.2811 46.7202C62.4091 46.7202 60.8971 47.3682 59.7451 48.6642C58.5931 49.9362 58.0171 51.7482 58.0171 54.1002C58.0171 56.4762 58.5931 58.3122 59.7451 59.6082C60.8971 60.9042 62.4091 61.5522 64.2811 61.5522C65.7211 61.5522 66.9211 61.2162 67.8811 60.5442C68.8411 59.8722 69.5011 58.9122 69.8611 57.6642H73.3891C72.8611 59.6802 71.8051 61.3002 70.2211 62.5242C68.6371 63.7242 66.6571 64.3242 64.2811 64.3242C62.4091 64.3242 60.7411 63.9042 59.2771 63.0642C57.8371 62.2242 56.7091 61.0362 55.8931 59.5002C55.0771 57.9642 54.6691 56.1642 54.6691 54.1002ZM86.3643 64.3242C84.5163 64.3242 82.8363 63.9042 81.3243 63.0642C79.8363 62.2242 78.6603 61.0362 77.7963 59.5002C76.9563 57.9402 76.5363 56.1402 76.5363 54.1002C76.5363 52.0842 76.9683 50.3082 77.8323 48.7722C78.7203 47.2122 79.9203 46.0242 81.4323 45.2082C82.9443 44.3682 84.6363 43.9482 86.5083 43.9482C88.3803 43.9482 90.0723 44.3682 91.5843 45.2082C93.0963 46.0242 94.2843 47.2002 95.1483 48.7362C96.0363 50.2722 96.4803 52.0602 96.4803 54.1002C96.4803 56.1402 96.0243 57.9402 95.1123 59.5002C94.2243 61.0362 93.0123 62.2242 91.4763 63.0642C89.9403 63.9042 88.2363 64.3242 86.3643 64.3242ZM86.3643 61.4442C87.5403 61.4442 88.6443 61.1682 89.6763 60.6162C90.7083 60.0642 91.5363 59.2362 92.1603 58.1322C92.8083 57.0282 93.1323 55.6842 93.1323 54.1002C93.1323 52.5162 92.8203 51.1722 92.1963 50.0682C91.5723 48.9642 90.7563 48.1482 89.7483 47.6202C88.7403 47.0682 87.6483 46.7922 86.4723 46.7922C85.2723 46.7922 84.1683 47.0682 83.1603 47.6202C82.1763 48.1482 81.3843 48.9642 80.7843 50.0682C80.1843 51.1722 79.8843 52.5162 79.8843 54.1002C79.8843 55.7082 80.1723 57.0642 80.7483 58.1682C81.3483 59.2722 82.1403 60.1002 83.1243 60.6522C84.1083 61.1802 85.1883 61.4442 86.3643 61.4442ZM108.132 60.9762L114.252 44.2722H117.744L110.004 64.0002H106.188L98.4476 44.2722H101.976L108.132 60.9762ZM138.967 53.3802C138.967 54.0042 138.931 54.6642 138.859 55.3602H123.091C123.211 57.3042 123.871 58.8282 125.071 59.9322C126.295 61.0122 127.771 61.5522 129.499 61.5522C130.915 61.5522 132.091 61.2282 133.027 60.5802C133.987 59.9082 134.659 59.0202 135.043 57.9162H138.571C138.043 59.8122 136.987 61.3602 135.403 62.5602C133.819 63.7362 131.851 64.3242 129.499 64.3242C127.627 64.3242 125.947 63.9042 124.459 63.0642C122.995 62.2242 121.843 61.0362 121.003 59.5002C120.163 57.9402 119.743 56.1402 119.743 54.1002C119.743 52.0602 120.151 50.2722 120.967 48.7362C121.783 47.2002 122.923 46.0242 124.387 45.2082C125.875 44.3682 127.579 43.9482 129.499 43.9482C131.371 43.9482 133.027 44.3562 134.467 45.1722C135.907 45.9882 137.011 47.1162 137.779 48.5562C138.571 49.9722 138.967 51.5802 138.967 53.3802ZM135.583 52.6962C135.583 51.4482 135.307 50.3802 134.755 49.4922C134.203 48.5802 133.447 47.8962 132.487 47.4402C131.551 46.9602 130.507 46.7202 129.355 46.7202C127.699 46.7202 126.283 47.2482 125.107 48.3042C123.955 49.3602 123.295 50.8242 123.127 52.6962H135.583ZM146.568 47.4762C147.144 46.3482 147.96 45.4722 149.016 44.8482C150.096 44.2242 151.404 43.9122 152.94 43.9122V47.2962H152.076C148.404 47.2962 146.568 49.2882 146.568 53.2722V64.0002H143.292V44.2722H146.568V47.4762ZM173.303 64.3242C171.791 64.3242 170.435 64.0722 169.235 63.5682C168.035 63.0402 167.087 62.3202 166.391 61.4082C165.695 60.4722 165.311 59.4042 165.239 58.2042H168.623C168.719 59.1882 169.175 59.9922 169.991 60.6162C170.831 61.2402 171.923 61.5522 173.267 61.5522C174.515 61.5522 175.499 61.2762 176.219 60.7242C176.939 60.1722 177.299 59.4762 177.299 58.6362C177.299 57.7722 176.915 57.1362 176.147 56.7282C175.379 56.2962 174.191 55.8762 172.583 55.4682C171.119 55.0842 169.919 54.7002 168.983 54.3162C168.071 53.9082 167.279 53.3202 166.607 52.5522C165.959 51.7602 165.635 50.7282 165.635 49.4562C165.635 48.4482 165.935 47.5242 166.535 46.6842C167.135 45.8442 167.987 45.1842 169.091 44.7042C170.195 44.2002 171.455 43.9482 172.871 43.9482C175.055 43.9482 176.819 44.5002 178.163 45.6042C179.507 46.7082 180.227 48.2202 180.323 50.1402H177.047C176.975 49.1082 176.555 48.2802 175.787 47.6562C175.043 47.0322 174.035 46.7202 172.763 46.7202C171.587 46.7202 170.651 46.9722 169.955 47.4762C169.259 47.9802 168.911 48.6402 168.911 49.4562C168.911 50.1042 169.115 50.6442 169.523 51.0762C169.955 51.4842 170.483 51.8202 171.107 52.0842C171.755 52.3242 172.643 52.6002 173.771 52.9122C175.187 53.2962 176.339 53.6802 177.227 54.0642C178.115 54.4242 178.871 54.9762 179.495 55.7202C180.143 56.4642 180.479 57.4362 180.503 58.6362C180.503 59.7162 180.203 60.6882 179.603 61.5522C179.003 62.4162 178.151 63.1002 177.047 63.6042C175.967 64.0842 174.719 64.3242 173.303 64.3242ZM193.731 64.3242C191.883 64.3242 190.203 63.9042 188.691 63.0642C187.203 62.2242 186.027 61.0362 185.163 59.5002C184.323 57.9402 183.903 56.1402 183.903 54.1002C183.903 52.0842 184.335 50.3082 185.199 48.7722C186.087 47.2122 187.287 46.0242 188.799 45.2082C190.311 44.3682 192.003 43.9482 193.875 43.9482C195.747 43.9482 197.439 44.3682 198.951 45.2082C200.463 46.0242 201.651 47.2002 202.515 48.7362C203.403 50.2722 203.847 52.0602 203.847 54.1002C203.847 56.1402 203.391 57.9402 202.479 59.5002C201.591 61.0362 200.379 62.2242 198.843 63.0642C197.307 63.9042 195.603 64.3242 193.731 64.3242ZM193.731 61.4442C194.907 61.4442 196.011 61.1682 197.043 60.6162C198.075 60.0642 198.903 59.2362 199.527 58.1322C200.175 57.0282 200.499 55.6842 200.499 54.1002C200.499 52.5162 200.187 51.1722 199.563 50.0682C198.939 48.9642 198.123 48.1482 197.115 47.6202C196.107 47.0682 195.015 46.7922 193.839 46.7922C192.639 46.7922 191.535 47.0682 190.527 47.6202C189.543 48.1482 188.751 48.9642 188.151 50.0682C187.551 51.1722 187.251 52.5162 187.251 54.1002C187.251 55.7082 187.539 57.0642 188.115 58.1682C188.715 59.2722 189.507 60.1002 190.491 60.6522C191.475 61.1802 192.555 61.4442 193.731 61.4442ZM211.431 37.3602V64.0002H208.155V37.3602H211.431ZM215.79 54.0642C215.79 52.0482 216.198 50.2842 217.014 48.7722C217.83 47.2362 218.946 46.0482 220.362 45.2082C221.802 44.3682 223.398 43.9482 225.15 43.9482C226.878 43.9482 228.378 44.3202 229.65 45.0642C230.922 45.8082 231.87 46.7442 232.494 47.8722V44.2722H235.806V64.0002H232.494V60.3282C231.846 61.4802 230.874 62.4402 229.578 63.2082C228.306 63.9522 226.818 64.3242 225.114 64.3242C223.362 64.3242 221.778 63.8922 220.362 63.0282C218.946 62.1642 217.83 60.9522 217.014 59.3922C216.198 57.8322 215.79 56.0562 215.79 54.0642ZM232.494 54.1002C232.494 52.6122 232.194 51.3162 231.594 50.2122C230.994 49.1082 230.178 48.2682 229.146 47.6922C228.138 47.0922 227.022 46.7922 225.798 46.7922C224.574 46.7922 223.458 47.0802 222.45 47.6562C221.442 48.2322 220.638 49.0722 220.038 50.1762C219.438 51.2802 219.138 52.5762 219.138 54.0642C219.138 55.5762 219.438 56.8962 220.038 58.0242C220.638 59.1282 221.442 59.9802 222.45 60.5802C223.458 61.1562 224.574 61.4442 225.798 61.4442C227.022 61.4442 228.138 61.1562 229.146 60.5802C230.178 59.9802 230.994 59.1282 231.594 58.0242C232.194 56.8962 232.494 55.5882 232.494 54.1002ZM244.618 47.4762C245.194 46.3482 246.01 45.4722 247.066 44.8482C248.146 44.2242 249.454 43.9122 250.99 43.9122V47.2962H250.126C246.454 47.2962 244.618 49.2882 244.618 53.2722V64.0002H241.342V44.2722H244.618V47.4762ZM267.646 47.9082C268.294 46.7802 269.254 45.8442 270.526 45.1002C271.822 44.3322 273.322 43.9482 275.026 43.9482C276.778 43.9482 278.362 44.3682 279.778 45.2082C281.218 46.0482 282.346 47.2362 283.162 48.7722C283.978 50.2842 284.386 52.0482 284.386 54.0642C284.386 56.0562 283.978 57.8322 283.162 59.3922C282.346 60.9522 281.218 62.1642 279.778 63.0282C278.362 63.8922 276.778 64.3242 275.026 64.3242C273.346 64.3242 271.858 63.9522 270.562 63.2082C269.29 62.4402 268.318 61.4922 267.646 60.3642V73.3602H264.37V44.2722H267.646V47.9082ZM281.038 54.0642C281.038 52.5762 280.738 51.2802 280.138 50.1762C279.538 49.0722 278.722 48.2322 277.69 47.6562C276.682 47.0802 275.566 46.7922 274.342 46.7922C273.142 46.7922 272.026 47.0922 270.994 47.6922C269.986 48.2682 269.17 49.1202 268.546 50.2482C267.946 51.3522 267.646 52.6362 267.646 54.1002C267.646 55.5882 267.946 56.8962 268.546 58.0242C269.17 59.1282 269.986 59.9802 270.994 60.5802C272.026 61.1562 273.142 61.4442 274.342 61.4442C275.566 61.4442 276.682 61.1562 277.69 60.5802C278.722 59.9802 279.538 59.1282 280.138 58.0242C280.738 56.8962 281.038 55.5762 281.038 54.0642ZM291.974 47.4762C292.55 46.3482 293.366 45.4722 294.422 44.8482C295.502 44.2242 296.81 43.9122 298.346 43.9122V47.2962H297.482C293.81 47.2962 291.974 49.2882 291.974 53.2722V64.0002H288.698V44.2722H291.974V47.4762ZM310.731 64.3242C308.883 64.3242 307.203 63.9042 305.691 63.0642C304.203 62.2242 303.027 61.0362 302.163 59.5002C301.323 57.9402 300.903 56.1402 300.903 54.1002C300.903 52.0842 301.335 50.3082 302.199 48.7722C303.087 47.2122 304.287 46.0242 305.799 45.2082C307.311 44.3682 309.003 43.9482 310.875 43.9482C312.747 43.9482 314.439 44.3682 315.951 45.2082C317.463 46.0242 318.651 47.2002 319.515 48.7362C320.403 50.2722 320.847 52.0602 320.847 54.1002C320.847 56.1402 320.391 57.9402 319.479 59.5002C318.591 61.0362 317.379 62.2242 315.843 63.0642C314.307 63.9042 312.603 64.3242 310.731 64.3242ZM310.731 61.4442C311.907 61.4442 313.011 61.1682 314.043 60.6162C315.075 60.0642 315.903 59.2362 316.527 58.1322C317.175 57.0282 317.499 55.6842 317.499 54.1002C317.499 52.5162 317.187 51.1722 316.563 50.0682C315.939 48.9642 315.123 48.1482 314.115 47.6202C313.107 47.0682 312.015 46.7922 310.839 46.7922C309.639 46.7922 308.535 47.0682 307.527 47.6202C306.543 48.1482 305.751 48.9642 305.151 50.0682C304.551 51.1722 304.251 52.5162 304.251 54.1002C304.251 55.7082 304.539 57.0642 305.115 58.1682C305.715 59.2722 306.507 60.1002 307.491 60.6522C308.475 61.1802 309.555 61.4442 310.731 61.4442ZM328.431 47.9442C329.103 46.7682 330.087 45.8082 331.383 45.0642C332.679 44.3202 334.155 43.9482 335.811 43.9482C337.587 43.9482 339.183 44.3682 340.599 45.2082C342.015 46.0482 343.131 47.2362 343.947 48.7722C344.763 50.2842 345.171 52.0482 345.171 54.0642C345.171 56.0562 344.763 57.8322 343.947 59.3922C343.131 60.9522 342.003 62.1642 340.563 63.0282C339.147 63.8922 337.563 64.3242 335.811 64.3242C334.107 64.3242 332.607 63.9522 331.311 63.2082C330.039 62.4642 329.079 61.5162 328.431 60.3642V64.0002H325.155V37.3602H328.431V47.9442ZM341.823 54.0642C341.823 52.5762 341.523 51.2802 340.923 50.1762C340.323 49.0722 339.507 48.2322 338.475 47.6562C337.467 47.0802 336.351 46.7922 335.127 46.7922C333.927 46.7922 332.811 47.0922 331.779 47.6922C330.771 48.2682 329.955 49.1202 329.331 50.2482C328.731 51.3522 328.431 52.6362 328.431 54.1002C328.431 55.5882 328.731 56.8962 329.331 58.0242C329.955 59.1282 330.771 59.9802 331.779 60.5802C332.811 61.1562 333.927 61.4442 335.127 61.4442C336.351 61.4442 337.467 61.1562 338.475 60.5802C339.507 59.9802 340.323 59.1282 340.923 58.0242C341.523 56.8962 341.823 55.5762 341.823 54.0642ZM367.483 53.3802C367.483 54.0042 367.447 54.6642 367.375 55.3602H351.607C351.727 57.3042 352.387 58.8282 353.587 59.9322C354.811 61.0122 356.287 61.5522 358.015 61.5522C359.431 61.5522 360.607 61.2282 361.543 60.5802C362.503 59.9082 363.175 59.0202 363.559 57.9162H367.087C366.559 59.8122 365.503 61.3602 363.919 62.5602C362.335 63.7362 360.367 64.3242 358.015 64.3242C356.143 64.3242 354.463 63.9042 352.975 63.0642C351.511 62.2242 350.359 61.0362 349.519 59.5002C348.679 57.9402 348.259 56.1402 348.259 54.1002C348.259 52.0602 348.667 50.2722 349.483 48.7362C350.299 47.2002 351.439 46.0242 352.903 45.2082C354.391 44.3682 356.095 43.9482 358.015 43.9482C359.887 43.9482 361.543 44.3562 362.983 45.1722C364.423 45.9882 365.527 47.1162 366.295 48.5562C367.087 49.9722 367.483 51.5802 367.483 53.3802ZM364.099 52.6962C364.099 51.4482 363.823 50.3802 363.271 49.4922C362.719 48.5802 361.963 47.8962 361.003 47.4402C360.067 46.9602 359.023 46.7202 357.871 46.7202C356.215 46.7202 354.799 47.2482 353.623 48.3042C352.471 49.3602 351.811 50.8242 351.643 52.6962H364.099ZM378.791 64.3242C377.279 64.3242 375.923 64.0722 374.723 63.5682C373.523 63.0402 372.575 62.3202 371.879 61.4082C371.183 60.4722 370.799 59.4042 370.727 58.2042H374.111C374.207 59.1882 374.663 59.9922 375.479 60.6162C376.319 61.2402 377.411 61.5522 378.755 61.5522C380.003 61.5522 380.987 61.2762 381.707 60.7242C382.427 60.1722 382.787 59.4762 382.787 58.6362C382.787 57.7722 382.403 57.1362 381.635 56.7282C380.867 56.2962 379.679 55.8762 378.071 55.4682C376.607 55.0842 375.407 54.7002 374.471 54.3162C373.559 53.9082 372.767 53.3202 372.095 52.5522C371.447 51.7602 371.123 50.7282 371.123 49.4562C371.123 48.4482 371.423 47.5242 372.023 46.6842C372.623 45.8442 373.475 45.1842 374.579 44.7042C375.683 44.2002 376.943 43.9482 378.359 43.9482C380.543 43.9482 382.307 44.5002 383.651 45.6042C384.995 46.7082 385.715 48.2202 385.811 50.1402H382.535C382.463 49.1082 382.043 48.2802 381.275 47.6562C380.531 47.0322 379.523 46.7202 378.251 46.7202C377.075 46.7202 376.139 46.9722 375.443 47.4762C374.747 47.9802 374.399 48.6402 374.399 49.4562C374.399 50.1042 374.603 50.6442 375.011 51.0762C375.443 51.4842 375.971 51.8202 376.595 52.0842C377.243 52.3242 378.131 52.6002 379.259 52.9122C380.675 53.2962 381.827 53.6802 382.715 54.0642C383.603 54.4242 384.359 54.9762 384.983 55.7202C385.631 56.4642 385.967 57.4362 385.991 58.6362C385.991 59.7162 385.691 60.6882 385.091 61.5522C384.491 62.4162 383.639 63.1002 382.535 63.6042C381.455 64.0842 380.207 64.3242 378.791 64.3242Z" fill="white"/>
</svg>
