<svg width="878" height="475" viewBox="0 0 878 475" fill="none" xmlns="http://www.w3.org/2000/svg">
<path d="M481 209C481 232.049 476.171 254.841 466.825 275.91C457.478 296.978 443.821 315.855 426.734 331.323C409.647 346.791 389.509 358.508 367.617 365.718C345.725 372.929 322.566 375.473 299.631 373.186C276.696 370.899 254.495 363.833 234.458 352.443C214.42 341.052 196.992 325.59 183.295 307.053C169.598 288.515 159.937 267.314 154.934 244.815C149.931 222.316 149.697 199.018 154.248 176.424L293.284 204.425C292.645 207.598 292.678 210.87 293.38 214.03C294.083 217.189 295.44 220.167 297.363 222.77C299.287 225.374 301.734 227.545 304.548 229.145C307.362 230.744 310.48 231.737 313.701 232.058C316.922 232.379 320.175 232.022 323.249 231.009C326.323 229.996 329.151 228.351 331.551 226.179C333.951 224.006 335.869 221.355 337.181 218.397C338.494 215.438 339.172 212.237 339.172 209L481 209Z" fill="#0788FE" fill-opacity="0.88"/>
<circle cx="740" cy="115" r="115" fill="#E81717" fill-opacity="0.84"/>
<path d="M16.128 90.192V112.56H40.512V119.76H16.128V142.8H43.392V150H7.392V82.992H43.392V90.192H16.128ZM84.0668 150L71.5868 130.416L59.5868 150H50.4668L67.4588 123.888L50.4668 97.392H60.3548L72.8348 116.88L84.7388 97.392H93.8588L76.9628 123.408L93.9548 150H84.0668ZM111.284 107.088C113.012 104.08 115.572 101.584 118.964 99.6C122.42 97.552 126.42 96.528 130.964 96.528C135.636 96.528 139.86 97.648 143.636 99.888C147.476 102.128 150.484 105.296 152.66 109.392C154.836 113.424 155.924 118.128 155.924 123.504C155.924 128.816 154.836 133.552 152.66 137.712C150.484 141.872 147.476 145.104 143.636 147.408C139.86 149.712 135.636 150.864 130.964 150.864C126.484 150.864 122.516 149.872 119.06 147.888C115.668 145.84 113.076 143.312 111.284 140.304V174.96H102.548V97.392H111.284V107.088ZM146.996 123.504C146.996 119.536 146.196 116.08 144.596 113.136C142.996 110.192 140.82 107.952 138.068 106.416C135.38 104.88 132.404 104.112 129.14 104.112C125.94 104.112 122.964 104.912 120.212 106.512C117.524 108.048 115.348 110.32 113.684 113.328C112.084 116.272 111.284 119.696 111.284 123.6C111.284 127.568 112.084 131.056 113.684 134.064C115.348 137.008 117.524 139.28 120.212 140.88C122.964 142.416 125.94 143.184 129.14 143.184C132.404 143.184 135.38 142.416 138.068 140.88C140.82 139.28 142.996 137.008 144.596 134.064C146.196 131.056 146.996 127.536 146.996 123.504ZM176.159 78.96V150H167.423V78.96H176.159ZM213.992 150.864C209.064 150.864 204.584 149.744 200.552 147.504C196.584 145.264 193.448 142.096 191.144 138C188.904 133.84 187.784 129.04 187.784 123.6C187.784 118.224 188.936 113.488 191.24 109.392C193.608 105.232 196.808 102.064 200.84 99.888C204.872 97.648 209.384 96.528 214.376 96.528C219.368 96.528 223.88 97.648 227.912 99.888C231.944 102.064 235.112 105.2 237.416 109.296C239.784 113.392 240.968 118.16 240.968 123.6C240.968 129.04 239.752 133.84 237.32 138C234.952 142.096 231.72 145.264 227.624 147.504C223.528 149.744 218.984 150.864 213.992 150.864ZM213.992 143.184C217.128 143.184 220.072 142.448 222.824 140.976C225.576 139.504 227.784 137.296 229.448 134.352C231.176 131.408 232.04 127.824 232.04 123.6C232.04 119.376 231.208 115.792 229.544 112.848C227.88 109.904 225.704 107.728 223.016 106.32C220.328 104.848 217.416 104.112 214.28 104.112C211.08 104.112 208.136 104.848 205.448 106.32C202.824 107.728 200.712 109.904 199.112 112.848C197.512 115.792 196.712 119.376 196.712 123.6C196.712 127.888 197.48 131.504 199.016 134.448C200.616 137.392 202.728 139.6 205.352 141.072C207.976 142.48 210.856 143.184 213.992 143.184ZM261.191 105.936C262.727 102.928 264.903 100.592 267.719 98.928C270.599 97.264 274.087 96.432 278.183 96.432V105.456H275.879C266.087 105.456 261.191 110.768 261.191 121.392V150H252.455V97.392H261.191V105.936ZM292.779 88.848C291.115 88.848 289.707 88.272 288.555 87.12C287.403 85.968 286.827 84.56 286.827 82.896C286.827 81.232 287.403 79.824 288.555 78.672C289.707 77.52 291.115 76.944 292.779 76.944C294.379 76.944 295.723 77.52 296.811 78.672C297.963 79.824 298.539 81.232 298.539 82.896C298.539 84.56 297.963 85.968 296.811 87.12C295.723 88.272 294.379 88.848 292.779 88.848ZM297.003 97.392V150H288.267V97.392H297.003ZM337.524 96.432C343.924 96.432 349.108 98.384 353.076 102.288C357.044 106.128 359.028 111.696 359.028 118.992V150H350.388V120.24C350.388 114.992 349.076 110.992 346.452 108.24C343.828 105.424 340.244 104.016 335.7 104.016C331.092 104.016 327.412 105.456 324.66 108.336C321.972 111.216 320.628 115.408 320.628 120.912V150H311.892V97.392H320.628V104.88C322.356 102.192 324.692 100.112 327.636 98.64C330.644 97.168 333.94 96.432 337.524 96.432ZM394.994 96.528C399.538 96.528 403.506 97.52 406.898 99.504C410.354 101.488 412.914 103.984 414.578 106.992V97.392H423.41V151.152C423.41 155.952 422.386 160.208 420.338 163.92C418.29 167.696 415.346 170.64 411.506 172.752C407.73 174.864 403.314 175.92 398.258 175.92C391.346 175.92 385.586 174.288 380.978 171.024C376.37 167.76 373.65 163.312 372.818 157.68H381.458C382.418 160.88 384.402 163.44 387.41 165.36C390.418 167.344 394.034 168.336 398.258 168.336C403.058 168.336 406.962 166.832 409.97 163.824C413.042 160.816 414.578 156.592 414.578 151.152V140.112C412.85 143.184 410.29 145.744 406.898 147.792C403.506 149.84 399.538 150.864 394.994 150.864C390.322 150.864 386.066 149.712 382.226 147.408C378.45 145.104 375.474 141.872 373.298 137.712C371.122 133.552 370.034 128.816 370.034 123.504C370.034 118.128 371.122 113.424 373.298 109.392C375.474 105.296 378.45 102.128 382.226 99.888C386.066 97.648 390.322 96.528 394.994 96.528ZM414.578 123.6C414.578 119.632 413.778 116.176 412.178 113.232C410.578 110.288 408.402 108.048 405.65 106.512C402.962 104.912 399.986 104.112 396.722 104.112C393.458 104.112 390.482 104.88 387.794 106.416C385.106 107.952 382.962 110.192 381.362 113.136C379.762 116.08 378.962 119.536 378.962 123.504C378.962 127.536 379.762 131.056 381.362 134.064C382.962 137.008 385.106 139.28 387.794 140.88C390.482 142.416 393.458 143.184 396.722 143.184C399.986 143.184 402.962 142.416 405.65 140.88C408.402 139.28 410.578 137.008 412.178 134.064C413.778 131.056 414.578 127.568 414.578 123.6ZM474.423 104.592V135.6C474.423 138.16 474.967 139.984 476.055 141.072C477.143 142.096 479.031 142.608 481.719 142.608H488.151V150H480.279C475.415 150 471.767 148.88 469.335 146.64C466.903 144.4 465.687 140.72 465.687 135.6V104.592H458.871V97.392H465.687V84.144H474.423V97.392H488.151V104.592H474.423ZM524.848 96.432C528.816 96.432 532.4 97.296 535.6 99.024C538.8 100.688 541.296 103.216 543.088 106.608C544.944 110 545.872 114.128 545.872 118.992V150H537.232V120.24C537.232 114.992 535.92 110.992 533.296 108.24C530.672 105.424 527.088 104.016 522.544 104.016C517.936 104.016 514.256 105.456 511.504 108.336C508.816 111.216 507.472 115.408 507.472 120.912V150H498.736V78.96H507.472V104.88C509.2 102.192 511.568 100.112 514.576 98.64C517.648 97.168 521.072 96.432 524.848 96.432ZM608.142 121.68C608.142 123.344 608.046 125.104 607.854 126.96H565.806C566.126 132.144 567.886 136.208 571.086 139.152C574.35 142.032 578.286 143.472 582.894 143.472C586.67 143.472 589.806 142.608 592.302 140.88C594.862 139.088 596.654 136.72 597.678 133.776H607.086C605.678 138.832 602.862 142.96 598.638 146.16C594.414 149.296 589.166 150.864 582.894 150.864C577.902 150.864 573.422 149.744 569.454 147.504C565.55 145.264 562.478 142.096 560.238 138C557.998 133.84 556.878 129.04 556.878 123.6C556.878 118.16 557.966 113.392 560.142 109.296C562.318 105.2 565.358 102.064 569.262 99.888C573.23 97.648 577.774 96.528 582.894 96.528C587.886 96.528 592.302 97.616 596.142 99.792C599.982 101.968 602.926 104.976 604.974 108.816C607.086 112.592 608.142 116.88 608.142 121.68ZM599.118 119.856C599.118 116.528 598.382 113.68 596.91 111.312C595.438 108.88 593.422 107.056 590.862 105.84C588.366 104.56 585.582 103.92 582.51 103.92C578.094 103.92 574.318 105.328 571.182 108.144C568.11 110.96 566.35 114.864 565.902 119.856H599.118ZM16.128 222.96V294H7.392V222.96H16.128ZM35.529 232.848C33.865 232.848 32.457 232.272 31.305 231.12C30.153 229.968 29.577 228.56 29.577 226.896C29.577 225.232 30.153 223.824 31.305 222.672C32.457 221.52 33.865 220.944 35.529 220.944C37.129 220.944 38.473 221.52 39.561 222.672C40.713 223.824 41.289 225.232 41.289 226.896C41.289 228.56 40.713 229.968 39.561 231.12C38.473 232.272 37.129 232.848 35.529 232.848ZM39.753 241.392V294H31.017V241.392H39.753ZM84.018 294L63.378 270.768V294H54.642V222.96H63.378V264.72L83.634 241.392H95.826L71.058 267.6L95.922 294H84.018ZM152.048 265.68C152.048 267.344 151.952 269.104 151.76 270.96H109.712C110.032 276.144 111.792 280.208 114.992 283.152C118.256 286.032 122.192 287.472 126.8 287.472C130.576 287.472 133.712 286.608 136.208 284.88C138.768 283.088 140.56 280.72 141.584 277.776H150.992C149.584 282.832 146.768 286.96 142.544 290.16C138.32 293.296 133.072 294.864 126.8 294.864C121.808 294.864 117.328 293.744 113.36 291.504C109.456 289.264 106.384 286.096 104.144 282C101.904 277.84 100.784 273.04 100.784 267.6C100.784 262.16 101.872 257.392 104.048 253.296C106.224 249.2 109.264 246.064 113.168 243.888C117.136 241.648 121.68 240.528 126.8 240.528C131.792 240.528 136.208 241.616 140.048 243.792C143.888 245.968 146.832 248.976 148.88 252.816C150.992 256.592 152.048 260.88 152.048 265.68ZM143.024 263.856C143.024 260.528 142.288 257.68 140.816 255.312C139.344 252.88 137.328 251.056 134.768 249.84C132.272 248.56 129.488 247.92 126.416 247.92C122 247.92 118.224 249.328 115.088 252.144C112.016 254.96 110.256 258.864 109.808 263.856H143.024ZM501.753 251.184C503.545 248.048 506.169 245.488 509.625 243.504C513.081 241.52 517.017 240.528 521.433 240.528C526.169 240.528 530.425 241.648 534.201 243.888C537.977 246.128 540.953 249.296 543.129 253.392C545.305 257.424 546.393 262.128 546.393 267.504C546.393 272.816 545.305 277.552 543.129 281.712C540.953 285.872 537.945 289.104 534.105 291.408C530.329 293.712 526.105 294.864 521.433 294.864C516.889 294.864 512.889 293.872 509.433 291.888C506.041 289.904 503.481 287.376 501.753 284.304V294H493.017V222.96H501.753V251.184ZM537.465 267.504C537.465 263.536 536.665 260.08 535.065 257.136C533.465 254.192 531.289 251.952 528.537 250.416C525.849 248.88 522.873 248.112 519.609 248.112C516.409 248.112 513.433 248.912 510.681 250.512C507.993 252.048 505.817 254.32 504.153 257.328C502.553 260.272 501.753 263.696 501.753 267.6C501.753 271.568 502.553 275.056 504.153 278.064C505.817 281.008 507.993 283.28 510.681 284.88C513.433 286.416 516.409 287.184 519.609 287.184C522.873 287.184 525.849 286.416 528.537 284.88C531.289 283.28 533.465 281.008 535.065 278.064C536.665 275.056 537.465 271.536 537.465 267.504ZM605.892 265.68C605.892 267.344 605.796 269.104 605.604 270.96H563.556C563.876 276.144 565.636 280.208 568.836 283.152C572.1 286.032 576.036 287.472 580.644 287.472C584.42 287.472 587.556 286.608 590.052 284.88C592.612 283.088 594.404 280.72 595.428 277.776H604.836C603.428 282.832 600.612 286.96 596.388 290.16C592.164 293.296 586.916 294.864 580.644 294.864C575.652 294.864 571.172 293.744 567.204 291.504C563.3 289.264 560.228 286.096 557.988 282C555.748 277.84 554.628 273.04 554.628 267.6C554.628 262.16 555.716 257.392 557.892 253.296C560.068 249.2 563.108 246.064 567.012 243.888C570.98 241.648 575.524 240.528 580.644 240.528C585.636 240.528 590.052 241.616 593.892 243.792C597.732 245.968 600.676 248.976 602.724 252.816C604.836 256.592 605.892 260.88 605.892 265.68ZM596.868 263.856C596.868 260.528 596.132 257.68 594.66 255.312C593.188 252.88 591.172 251.056 588.612 249.84C586.116 248.56 583.332 247.92 580.26 247.92C575.844 247.92 572.068 249.328 568.932 252.144C565.86 254.96 564.1 258.864 563.652 263.856H596.868ZM638.831 248.592H627.791V294H619.055V248.592H612.239V241.392H619.055V237.648C619.055 231.76 620.559 227.472 623.567 224.784C626.639 222.032 631.535 220.656 638.255 220.656V227.952C634.415 227.952 631.695 228.72 630.095 230.256C628.559 231.728 627.791 234.192 627.791 237.648V241.392H638.831V248.592ZM671.961 294.864C667.033 294.864 662.553 293.744 658.521 291.504C654.553 289.264 651.417 286.096 649.113 282C646.873 277.84 645.753 273.04 645.753 267.6C645.753 262.224 646.905 257.488 649.209 253.392C651.577 249.232 654.777 246.064 658.809 243.888C662.841 241.648 667.353 240.528 672.345 240.528C677.337 240.528 681.849 241.648 685.881 243.888C689.913 246.064 693.081 249.2 695.385 253.296C697.753 257.392 698.937 262.16 698.937 267.6C698.937 273.04 697.721 277.84 695.289 282C692.921 286.096 689.689 289.264 685.593 291.504C681.497 293.744 676.953 294.864 671.961 294.864ZM671.961 287.184C675.097 287.184 678.041 286.448 680.793 284.976C683.545 283.504 685.753 281.296 687.417 278.352C689.145 275.408 690.009 271.824 690.009 267.6C690.009 263.376 689.177 259.792 687.513 256.848C685.849 253.904 683.673 251.728 680.985 250.32C678.297 248.848 675.385 248.112 672.249 248.112C669.049 248.112 666.105 248.848 663.417 250.32C660.793 251.728 658.681 253.904 657.081 256.848C655.481 259.792 654.681 263.376 654.681 267.6C654.681 271.888 655.449 275.504 656.985 278.448C658.585 281.392 660.697 283.6 663.321 285.072C665.945 286.48 668.825 287.184 671.961 287.184ZM719.159 249.936C720.695 246.928 722.871 244.592 725.687 242.928C728.567 241.264 732.055 240.432 736.151 240.432V249.456H733.847C724.055 249.456 719.159 254.768 719.159 265.392V294H710.423V241.392H719.159V249.936ZM794.236 265.68C794.236 267.344 794.14 269.104 793.948 270.96H751.9C752.22 276.144 753.98 280.208 757.18 283.152C760.444 286.032 764.38 287.472 768.988 287.472C772.764 287.472 775.9 286.608 778.396 284.88C780.956 283.088 782.748 280.72 783.772 277.776H793.18C791.772 282.832 788.956 286.96 784.732 290.16C780.508 293.296 775.26 294.864 768.988 294.864C763.996 294.864 759.516 293.744 755.548 291.504C751.644 289.264 748.572 286.096 746.332 282C744.092 277.84 742.972 273.04 742.972 267.6C742.972 262.16 744.06 257.392 746.236 253.296C748.412 249.2 751.452 246.064 755.356 243.888C759.324 241.648 763.868 240.528 768.988 240.528C773.98 240.528 778.396 241.616 782.236 243.792C786.076 245.968 789.02 248.976 791.068 252.816C793.18 256.592 794.236 260.88 794.236 265.68ZM785.212 263.856C785.212 260.528 784.476 257.68 783.004 255.312C781.532 252.88 779.516 251.056 776.956 249.84C774.46 248.56 771.676 247.92 768.604 247.92C764.188 247.92 760.412 249.328 757.276 252.144C754.204 254.96 752.444 258.864 751.996 263.856H785.212Z" fill="white"/>
<path d="M667.635 150.672C662.963 150.672 658.739 149.872 654.963 148.272C651.251 146.672 648.307 144.368 646.131 141.36C643.955 138.352 642.835 134.8 642.771 130.704H657.171C657.363 133.456 658.323 135.632 660.051 137.232C661.843 138.832 664.275 139.632 667.347 139.632C670.483 139.632 672.947 138.896 674.739 137.424C676.531 135.888 677.427 133.904 677.427 131.472C677.427 129.488 676.819 127.856 675.603 126.576C674.387 125.296 672.851 124.304 670.995 123.6C669.203 122.832 666.707 122 663.507 121.104C659.155 119.824 655.603 118.576 652.851 117.36C650.163 116.08 647.827 114.192 645.843 111.696C643.923 109.136 642.963 105.744 642.963 101.52C642.963 97.552 643.955 94.096 645.939 91.152C647.923 88.208 650.707 85.968 654.291 84.432C657.875 82.832 661.971 82.032 666.579 82.032C673.491 82.032 679.091 83.728 683.379 87.12C687.731 90.448 690.131 95.12 690.579 101.136H675.795C675.667 98.832 674.675 96.944 672.819 95.472C671.027 93.936 668.627 93.168 665.619 93.168C662.995 93.168 660.883 93.84 659.283 95.184C657.747 96.528 656.979 98.48 656.979 101.04C656.979 102.832 657.555 104.336 658.707 105.552C659.923 106.704 661.395 107.664 663.123 108.432C664.915 109.136 667.411 109.968 670.611 110.928C674.963 112.208 678.515 113.488 681.267 114.768C684.019 116.048 686.387 117.968 688.371 120.528C690.355 123.088 691.347 126.448 691.347 130.608C691.347 134.192 690.419 137.52 688.563 140.592C686.707 143.664 683.987 146.128 680.403 147.984C676.819 149.776 672.563 150.672 667.635 150.672ZM716.247 82.992V124.464C716.247 129.008 717.431 132.496 719.799 134.928C722.167 137.296 725.495 138.48 729.783 138.48C734.135 138.48 737.495 137.296 739.863 134.928C742.231 132.496 743.415 129.008 743.415 124.464V82.992H756.951V124.368C756.951 130.064 755.703 134.896 753.207 138.864C750.775 142.768 747.479 145.712 743.319 147.696C739.223 149.68 734.647 150.672 729.591 150.672C724.599 150.672 720.055 149.68 715.959 147.696C711.927 145.712 708.727 142.768 706.359 138.864C703.991 134.896 702.807 130.064 702.807 124.368V82.992H716.247ZM827.249 150H813.809L783.377 104.016V150H769.937V82.896H783.377L813.809 128.976V82.896H827.249V150ZM217.877 240.048C224.213 240.048 229.333 242.064 233.237 246.096C237.141 250.064 239.093 255.632 239.093 262.8V294H225.653V264.624C225.653 260.4 224.597 257.168 222.485 254.928C220.373 252.624 217.493 251.472 213.845 251.472C210.133 251.472 207.189 252.624 205.013 254.928C202.901 257.168 201.845 260.4 201.845 264.624V294H188.405V240.816H201.845V247.44C203.637 245.136 205.909 243.344 208.661 242.064C211.477 240.72 214.549 240.048 217.877 240.048ZM301.314 266.256C301.314 268.176 301.186 269.904 300.93 271.44H262.05C262.37 275.28 263.714 278.288 266.082 280.464C268.45 282.64 271.362 283.728 274.818 283.728C279.81 283.728 283.362 281.584 285.474 277.296H299.97C298.434 282.416 295.49 286.64 291.138 289.968C286.786 293.232 281.442 294.864 275.106 294.864C269.986 294.864 265.378 293.744 261.282 291.504C257.25 289.2 254.082 285.968 251.778 281.808C249.538 277.648 248.418 272.848 248.418 267.408C248.418 261.904 249.538 257.072 251.778 252.912C254.018 248.752 257.154 245.552 261.186 243.312C265.218 241.072 269.858 239.952 275.106 239.952C280.162 239.952 284.674 241.04 288.642 243.216C292.674 245.392 295.778 248.496 297.954 252.528C300.194 256.496 301.314 261.072 301.314 266.256ZM287.394 262.416C287.33 258.96 286.082 256.208 283.65 254.16C281.218 252.048 278.242 250.992 274.722 250.992C271.394 250.992 268.578 252.016 266.274 254.064C264.034 256.048 262.658 258.832 262.146 262.416H287.394ZM333.3 281.616L346.74 240.816H361.044L341.364 294H325.044L305.46 240.816H319.86L333.3 281.616ZM418.033 266.256C418.033 268.176 417.905 269.904 417.649 271.44H378.769C379.089 275.28 380.433 278.288 382.801 280.464C385.169 282.64 388.081 283.728 391.537 283.728C396.529 283.728 400.081 281.584 402.193 277.296H416.689C415.153 282.416 412.209 286.64 407.857 289.968C403.505 293.232 398.161 294.864 391.825 294.864C386.705 294.864 382.097 293.744 378.001 291.504C373.969 289.2 370.801 285.968 368.497 281.808C366.257 277.648 365.137 272.848 365.137 267.408C365.137 261.904 366.257 257.072 368.497 252.912C370.737 248.752 373.873 245.552 377.905 243.312C381.937 241.072 386.577 239.952 391.825 239.952C396.881 239.952 401.393 241.04 405.361 243.216C409.393 245.392 412.497 248.496 414.673 252.528C416.913 256.496 418.033 261.072 418.033 266.256ZM404.113 262.416C404.049 258.96 402.801 256.208 400.369 254.16C397.937 252.048 394.961 250.992 391.441 250.992C388.113 250.992 385.297 252.016 382.993 254.064C380.753 256.048 379.377 258.832 378.865 262.416H404.113ZM441.283 249.072C443.011 246.256 445.251 244.048 448.003 242.448C450.819 240.848 454.019 240.048 457.603 240.048V254.16H454.051C449.827 254.16 446.627 255.152 444.451 257.136C442.339 259.12 441.283 262.576 441.283 267.504V294H427.843V240.816H441.283V249.072Z" fill="black"/>
<path d="M20.584 378.908C23.32 378.908 25.684 379.424 27.676 380.456C29.692 381.464 31.228 382.916 32.284 384.812C33.364 386.708 33.904 388.94 33.904 391.508C33.904 394.076 33.364 396.308 32.284 398.204C31.228 400.076 29.692 401.516 27.676 402.524C25.684 403.508 23.32 404 20.584 404H12.772V378.908H20.584ZM20.584 401.3C23.824 401.3 26.296 400.448 28 398.744C29.704 397.016 30.556 394.604 30.556 391.508C30.556 388.388 29.692 385.952 27.964 384.2C26.26 382.448 23.8 381.572 20.584 381.572H16.048V401.3H20.584ZM39.9171 381.068C39.2931 381.068 38.7651 380.852 38.3331 380.42C37.9011 379.988 37.6851 379.46 37.6851 378.836C37.6851 378.212 37.9011 377.684 38.3331 377.252C38.7651 376.82 39.2931 376.604 39.9171 376.604C40.5171 376.604 41.0211 376.82 41.4291 377.252C41.8611 377.684 42.0771 378.212 42.0771 378.836C42.0771 379.46 41.8611 379.988 41.4291 380.42C41.0211 380.852 40.5171 381.068 39.9171 381.068ZM41.5011 384.272V404H38.2251V384.272H41.5011ZM54.0685 404.324C52.5565 404.324 51.2005 404.072 50.0005 403.568C48.8005 403.04 47.8525 402.32 47.1565 401.408C46.4605 400.472 46.0765 399.404 46.0045 398.204H49.3885C49.4845 399.188 49.9405 399.992 50.7565 400.616C51.5965 401.24 52.6885 401.552 54.0325 401.552C55.2805 401.552 56.2645 401.276 56.9845 400.724C57.7045 400.172 58.0645 399.476 58.0645 398.636C58.0645 397.772 57.6805 397.136 56.9125 396.728C56.1445 396.296 54.9565 395.876 53.3485 395.468C51.8845 395.084 50.6845 394.7 49.7485 394.316C48.8365 393.908 48.0445 393.32 47.3725 392.552C46.7245 391.76 46.4005 390.728 46.4005 389.456C46.4005 388.448 46.7005 387.524 47.3005 386.684C47.9005 385.844 48.7525 385.184 49.8565 384.704C50.9605 384.2 52.2205 383.948 53.6365 383.948C55.8205 383.948 57.5845 384.5 58.9285 385.604C60.2725 386.708 60.9925 388.22 61.0885 390.14H57.8125C57.7405 389.108 57.3205 388.28 56.5525 387.656C55.8085 387.032 54.8005 386.72 53.5285 386.72C52.3525 386.72 51.4165 386.972 50.7205 387.476C50.0245 387.98 49.6765 388.64 49.6765 389.456C49.6765 390.104 49.8805 390.644 50.2885 391.076C50.7205 391.484 51.2485 391.82 51.8725 392.084C52.5205 392.324 53.4085 392.6 54.5365 392.912C55.9525 393.296 57.1045 393.68 57.9925 394.064C58.8805 394.424 59.6365 394.976 60.2605 395.72C60.9085 396.464 61.2445 397.436 61.2685 398.636C61.2685 399.716 60.9685 400.688 60.3685 401.552C59.7685 402.416 58.9165 403.1 57.8125 403.604C56.7325 404.084 55.4845 404.324 54.0685 404.324ZM64.6691 394.1C64.6691 392.06 65.0771 390.284 65.8931 388.772C66.7091 387.236 67.8371 386.048 69.2771 385.208C70.7411 384.368 72.4091 383.948 74.2811 383.948C76.7051 383.948 78.6971 384.536 80.2571 385.712C81.8411 386.888 82.8851 388.52 83.3891 390.608H79.8611C79.5251 389.408 78.8651 388.46 77.8811 387.764C76.9211 387.068 75.7211 386.72 74.2811 386.72C72.4091 386.72 70.8971 387.368 69.7451 388.664C68.5931 389.936 68.0171 391.748 68.0171 394.1C68.0171 396.476 68.5931 398.312 69.7451 399.608C70.8971 400.904 72.4091 401.552 74.2811 401.552C75.7211 401.552 76.9211 401.216 77.8811 400.544C78.8411 399.872 79.5011 398.912 79.8611 397.664H83.3891C82.8611 399.68 81.8051 401.3 80.2211 402.524C78.6371 403.724 76.6571 404.324 74.2811 404.324C72.4091 404.324 70.7411 403.904 69.2771 403.064C67.8371 402.224 66.7091 401.036 65.8931 399.5C65.0771 397.964 64.6691 396.164 64.6691 394.1ZM96.3643 404.324C94.5163 404.324 92.8363 403.904 91.3243 403.064C89.8363 402.224 88.6603 401.036 87.7963 399.5C86.9563 397.94 86.5363 396.14 86.5363 394.1C86.5363 392.084 86.9683 390.308 87.8323 388.772C88.7203 387.212 89.9203 386.024 91.4323 385.208C92.9443 384.368 94.6363 383.948 96.5083 383.948C98.3803 383.948 100.072 384.368 101.584 385.208C103.096 386.024 104.284 387.2 105.148 388.736C106.036 390.272 106.48 392.06 106.48 394.1C106.48 396.14 106.024 397.94 105.112 399.5C104.224 401.036 103.012 402.224 101.476 403.064C99.9403 403.904 98.2363 404.324 96.3643 404.324ZM96.3643 401.444C97.5403 401.444 98.6443 401.168 99.6763 400.616C100.708 400.064 101.536 399.236 102.16 398.132C102.808 397.028 103.132 395.684 103.132 394.1C103.132 392.516 102.82 391.172 102.196 390.068C101.572 388.964 100.756 388.148 99.7483 387.62C98.7403 387.068 97.6483 386.792 96.4723 386.792C95.2723 386.792 94.1683 387.068 93.1603 387.62C92.1763 388.148 91.3843 388.964 90.7843 390.068C90.1843 391.172 89.8843 392.516 89.8843 394.1C89.8843 395.708 90.1723 397.064 90.7483 398.168C91.3483 399.272 92.1403 400.1 93.1243 400.652C94.1083 401.18 95.1883 401.444 96.3643 401.444ZM118.132 400.976L124.252 384.272H127.744L120.004 404H116.188L108.448 384.272H111.976L118.132 400.976ZM148.967 393.38C148.967 394.004 148.931 394.664 148.859 395.36H133.091C133.211 397.304 133.871 398.828 135.071 399.932C136.295 401.012 137.771 401.552 139.499 401.552C140.915 401.552 142.091 401.228 143.027 400.58C143.987 399.908 144.659 399.02 145.043 397.916H148.571C148.043 399.812 146.987 401.36 145.403 402.56C143.819 403.736 141.851 404.324 139.499 404.324C137.627 404.324 135.947 403.904 134.459 403.064C132.995 402.224 131.843 401.036 131.003 399.5C130.163 397.94 129.743 396.14 129.743 394.1C129.743 392.06 130.151 390.272 130.967 388.736C131.783 387.2 132.923 386.024 134.387 385.208C135.875 384.368 137.579 383.948 139.499 383.948C141.371 383.948 143.027 384.356 144.467 385.172C145.907 385.988 147.011 387.116 147.779 388.556C148.571 389.972 148.967 391.58 148.967 393.38ZM145.583 392.696C145.583 391.448 145.307 390.38 144.755 389.492C144.203 388.58 143.447 387.896 142.487 387.44C141.551 386.96 140.507 386.72 139.355 386.72C137.699 386.72 136.283 387.248 135.107 388.304C133.955 389.36 133.295 390.824 133.127 392.696H145.583ZM156.568 387.476C157.144 386.348 157.96 385.472 159.016 384.848C160.096 384.224 161.404 383.912 162.94 383.912V387.296H162.076C158.404 387.296 156.568 389.288 156.568 393.272V404H153.292V384.272H156.568V387.476ZM183.303 404.324C181.791 404.324 180.435 404.072 179.235 403.568C178.035 403.04 177.087 402.32 176.391 401.408C175.695 400.472 175.311 399.404 175.239 398.204H178.623C178.719 399.188 179.175 399.992 179.991 400.616C180.831 401.24 181.923 401.552 183.267 401.552C184.515 401.552 185.499 401.276 186.219 400.724C186.939 400.172 187.299 399.476 187.299 398.636C187.299 397.772 186.915 397.136 186.147 396.728C185.379 396.296 184.191 395.876 182.583 395.468C181.119 395.084 179.919 394.7 178.983 394.316C178.071 393.908 177.279 393.32 176.607 392.552C175.959 391.76 175.635 390.728 175.635 389.456C175.635 388.448 175.935 387.524 176.535 386.684C177.135 385.844 177.987 385.184 179.091 384.704C180.195 384.2 181.455 383.948 182.871 383.948C185.055 383.948 186.819 384.5 188.163 385.604C189.507 386.708 190.227 388.22 190.323 390.14H187.047C186.975 389.108 186.555 388.28 185.787 387.656C185.043 387.032 184.035 386.72 182.763 386.72C181.587 386.72 180.651 386.972 179.955 387.476C179.259 387.98 178.911 388.64 178.911 389.456C178.911 390.104 179.115 390.644 179.523 391.076C179.955 391.484 180.483 391.82 181.107 392.084C181.755 392.324 182.643 392.6 183.771 392.912C185.187 393.296 186.339 393.68 187.227 394.064C188.115 394.424 188.871 394.976 189.495 395.72C190.143 396.464 190.479 397.436 190.503 398.636C190.503 399.716 190.203 400.688 189.603 401.552C189.003 402.416 188.151 403.1 187.047 403.604C185.967 404.084 184.719 404.324 183.303 404.324ZM203.731 404.324C201.883 404.324 200.203 403.904 198.691 403.064C197.203 402.224 196.027 401.036 195.163 399.5C194.323 397.94 193.903 396.14 193.903 394.1C193.903 392.084 194.335 390.308 195.199 388.772C196.087 387.212 197.287 386.024 198.799 385.208C200.311 384.368 202.003 383.948 203.875 383.948C205.747 383.948 207.439 384.368 208.951 385.208C210.463 386.024 211.651 387.2 212.515 388.736C213.403 390.272 213.847 392.06 213.847 394.1C213.847 396.14 213.391 397.94 212.479 399.5C211.591 401.036 210.379 402.224 208.843 403.064C207.307 403.904 205.603 404.324 203.731 404.324ZM203.731 401.444C204.907 401.444 206.011 401.168 207.043 400.616C208.075 400.064 208.903 399.236 209.527 398.132C210.175 397.028 210.499 395.684 210.499 394.1C210.499 392.516 210.187 391.172 209.563 390.068C208.939 388.964 208.123 388.148 207.115 387.62C206.107 387.068 205.015 386.792 203.839 386.792C202.639 386.792 201.535 387.068 200.527 387.62C199.543 388.148 198.751 388.964 198.151 390.068C197.551 391.172 197.251 392.516 197.251 394.1C197.251 395.708 197.539 397.064 198.115 398.168C198.715 399.272 199.507 400.1 200.491 400.652C201.475 401.18 202.555 401.444 203.731 401.444ZM221.431 377.36V404H218.155V377.36H221.431ZM225.79 394.064C225.79 392.048 226.198 390.284 227.014 388.772C227.83 387.236 228.946 386.048 230.362 385.208C231.802 384.368 233.398 383.948 235.15 383.948C236.878 383.948 238.378 384.32 239.65 385.064C240.922 385.808 241.87 386.744 242.494 387.872V384.272H245.806V404H242.494V400.328C241.846 401.48 240.874 402.44 239.578 403.208C238.306 403.952 236.818 404.324 235.114 404.324C233.362 404.324 231.778 403.892 230.362 403.028C228.946 402.164 227.83 400.952 227.014 399.392C226.198 397.832 225.79 396.056 225.79 394.064ZM242.494 394.1C242.494 392.612 242.194 391.316 241.594 390.212C240.994 389.108 240.178 388.268 239.146 387.692C238.138 387.092 237.022 386.792 235.798 386.792C234.574 386.792 233.458 387.08 232.45 387.656C231.442 388.232 230.638 389.072 230.038 390.176C229.438 391.28 229.138 392.576 229.138 394.064C229.138 395.576 229.438 396.896 230.038 398.024C230.638 399.128 231.442 399.98 232.45 400.58C233.458 401.156 234.574 401.444 235.798 401.444C237.022 401.444 238.138 401.156 239.146 400.58C240.178 399.98 240.994 399.128 241.594 398.024C242.194 396.896 242.494 395.588 242.494 394.1ZM254.618 387.476C255.194 386.348 256.01 385.472 257.066 384.848C258.146 384.224 259.454 383.912 260.99 383.912V387.296H260.126C256.454 387.296 254.618 389.288 254.618 393.272V404H251.342V384.272H254.618V387.476ZM277.646 387.908C278.294 386.78 279.254 385.844 280.526 385.1C281.822 384.332 283.322 383.948 285.026 383.948C286.778 383.948 288.362 384.368 289.778 385.208C291.218 386.048 292.346 387.236 293.162 388.772C293.978 390.284 294.386 392.048 294.386 394.064C294.386 396.056 293.978 397.832 293.162 399.392C292.346 400.952 291.218 402.164 289.778 403.028C288.362 403.892 286.778 404.324 285.026 404.324C283.346 404.324 281.858 403.952 280.562 403.208C279.29 402.44 278.318 401.492 277.646 400.364V413.36H274.37V384.272H277.646V387.908ZM291.038 394.064C291.038 392.576 290.738 391.28 290.138 390.176C289.538 389.072 288.722 388.232 287.69 387.656C286.682 387.08 285.566 386.792 284.342 386.792C283.142 386.792 282.026 387.092 280.994 387.692C279.986 388.268 279.17 389.12 278.546 390.248C277.946 391.352 277.646 392.636 277.646 394.1C277.646 395.588 277.946 396.896 278.546 398.024C279.17 399.128 279.986 399.98 280.994 400.58C282.026 401.156 283.142 401.444 284.342 401.444C285.566 401.444 286.682 401.156 287.69 400.58C288.722 399.98 289.538 399.128 290.138 398.024C290.738 396.896 291.038 395.576 291.038 394.064ZM301.974 387.476C302.55 386.348 303.366 385.472 304.422 384.848C305.502 384.224 306.81 383.912 308.346 383.912V387.296H307.482C303.81 387.296 301.974 389.288 301.974 393.272V404H298.698V384.272H301.974V387.476ZM320.731 404.324C318.883 404.324 317.203 403.904 315.691 403.064C314.203 402.224 313.027 401.036 312.163 399.5C311.323 397.94 310.903 396.14 310.903 394.1C310.903 392.084 311.335 390.308 312.199 388.772C313.087 387.212 314.287 386.024 315.799 385.208C317.311 384.368 319.003 383.948 320.875 383.948C322.747 383.948 324.439 384.368 325.951 385.208C327.463 386.024 328.651 387.2 329.515 388.736C330.403 390.272 330.847 392.06 330.847 394.1C330.847 396.14 330.391 397.94 329.479 399.5C328.591 401.036 327.379 402.224 325.843 403.064C324.307 403.904 322.603 404.324 320.731 404.324ZM320.731 401.444C321.907 401.444 323.011 401.168 324.043 400.616C325.075 400.064 325.903 399.236 326.527 398.132C327.175 397.028 327.499 395.684 327.499 394.1C327.499 392.516 327.187 391.172 326.563 390.068C325.939 388.964 325.123 388.148 324.115 387.62C323.107 387.068 322.015 386.792 320.839 386.792C319.639 386.792 318.535 387.068 317.527 387.62C316.543 388.148 315.751 388.964 315.151 390.068C314.551 391.172 314.251 392.516 314.251 394.1C314.251 395.708 314.539 397.064 315.115 398.168C315.715 399.272 316.507 400.1 317.491 400.652C318.475 401.18 319.555 401.444 320.731 401.444ZM338.431 387.944C339.103 386.768 340.087 385.808 341.383 385.064C342.679 384.32 344.155 383.948 345.811 383.948C347.587 383.948 349.183 384.368 350.599 385.208C352.015 386.048 353.131 387.236 353.947 388.772C354.763 390.284 355.171 392.048 355.171 394.064C355.171 396.056 354.763 397.832 353.947 399.392C353.131 400.952 352.003 402.164 350.563 403.028C349.147 403.892 347.563 404.324 345.811 404.324C344.107 404.324 342.607 403.952 341.311 403.208C340.039 402.464 339.079 401.516 338.431 400.364V404H335.155V377.36H338.431V387.944ZM351.823 394.064C351.823 392.576 351.523 391.28 350.923 390.176C350.323 389.072 349.507 388.232 348.475 387.656C347.467 387.08 346.351 386.792 345.127 386.792C343.927 386.792 342.811 387.092 341.779 387.692C340.771 388.268 339.955 389.12 339.331 390.248C338.731 391.352 338.431 392.636 338.431 394.1C338.431 395.588 338.731 396.896 339.331 398.024C339.955 399.128 340.771 399.98 341.779 400.58C342.811 401.156 343.927 401.444 345.127 401.444C346.351 401.444 347.467 401.156 348.475 400.58C349.507 399.98 350.323 399.128 350.923 398.024C351.523 396.896 351.823 395.576 351.823 394.064ZM377.483 393.38C377.483 394.004 377.447 394.664 377.375 395.36H361.607C361.727 397.304 362.387 398.828 363.587 399.932C364.811 401.012 366.287 401.552 368.015 401.552C369.431 401.552 370.607 401.228 371.543 400.58C372.503 399.908 373.175 399.02 373.559 397.916H377.087C376.559 399.812 375.503 401.36 373.919 402.56C372.335 403.736 370.367 404.324 368.015 404.324C366.143 404.324 364.463 403.904 362.975 403.064C361.511 402.224 360.359 401.036 359.519 399.5C358.679 397.94 358.259 396.14 358.259 394.1C358.259 392.06 358.667 390.272 359.483 388.736C360.299 387.2 361.439 386.024 362.903 385.208C364.391 384.368 366.095 383.948 368.015 383.948C369.887 383.948 371.543 384.356 372.983 385.172C374.423 385.988 375.527 387.116 376.295 388.556C377.087 389.972 377.483 391.58 377.483 393.38ZM374.099 392.696C374.099 391.448 373.823 390.38 373.271 389.492C372.719 388.58 371.963 387.896 371.003 387.44C370.067 386.96 369.023 386.72 367.871 386.72C366.215 386.72 364.799 387.248 363.623 388.304C362.471 389.36 361.811 390.824 361.643 392.696H374.099ZM388.791 404.324C387.279 404.324 385.923 404.072 384.723 403.568C383.523 403.04 382.575 402.32 381.879 401.408C381.183 400.472 380.799 399.404 380.727 398.204H384.111C384.207 399.188 384.663 399.992 385.479 400.616C386.319 401.24 387.411 401.552 388.755 401.552C390.003 401.552 390.987 401.276 391.707 400.724C392.427 400.172 392.787 399.476 392.787 398.636C392.787 397.772 392.403 397.136 391.635 396.728C390.867 396.296 389.679 395.876 388.071 395.468C386.607 395.084 385.407 394.7 384.471 394.316C383.559 393.908 382.767 393.32 382.095 392.552C381.447 391.76 381.123 390.728 381.123 389.456C381.123 388.448 381.423 387.524 382.023 386.684C382.623 385.844 383.475 385.184 384.579 384.704C385.683 384.2 386.943 383.948 388.359 383.948C390.543 383.948 392.307 384.5 393.651 385.604C394.995 386.708 395.715 388.22 395.811 390.14H392.535C392.463 389.108 392.043 388.28 391.275 387.656C390.531 387.032 389.523 386.72 388.251 386.72C387.075 386.72 386.139 386.972 385.443 387.476C384.747 387.98 384.399 388.64 384.399 389.456C384.399 390.104 384.603 390.644 385.011 391.076C385.443 391.484 385.971 391.82 386.595 392.084C387.243 392.324 388.131 392.6 389.259 392.912C390.675 393.296 391.827 393.68 392.715 394.064C393.603 394.424 394.359 394.976 394.983 395.72C395.631 396.464 395.967 397.436 395.991 398.636C395.991 399.716 395.691 400.688 395.091 401.552C394.491 402.416 393.639 403.1 392.535 403.604C391.455 404.084 390.207 404.324 388.791 404.324Z" fill="white"/>
</svg>
