<svg width="878" height="374" viewBox="0 0 878 374" fill="none" xmlns="http://www.w3.org/2000/svg">
<circle cx="740" cy="115" r="115" fill="#E81717" fill-opacity="0.84"/>
<path d="M481 209C481 232.049 476.171 254.841 466.825 275.91C457.478 296.978 443.821 315.855 426.734 331.323C409.647 346.791 389.509 358.508 367.617 365.718C345.725 372.929 322.566 375.473 299.631 373.186C276.696 370.899 254.495 363.833 234.458 352.443C214.42 341.052 196.992 325.59 183.295 307.053C169.598 288.515 159.937 267.314 154.934 244.815C149.931 222.316 149.697 199.018 154.248 176.424L293.284 204.425C292.645 207.598 292.678 210.87 293.38 214.03C294.083 217.189 295.44 220.167 297.363 222.77C299.287 225.373 301.734 227.545 304.548 229.145C307.362 230.744 310.48 231.737 313.701 232.058C316.922 232.379 320.175 232.022 323.249 231.009C326.323 229.996 329.151 228.351 331.551 226.179C333.951 224.006 335.869 221.355 337.181 218.397C338.494 215.438 339.172 212.237 339.172 209L481 209Z" fill="#0788FE" fill-opacity="0.88"/>
<path d="M16.128 90.192V112.56H40.512V119.76H16.128V142.8H43.392V150H7.392V82.992H43.392V90.192H16.128ZM84.0668 150L71.5868 130.416L59.5868 150H50.4668L67.4588 123.888L50.4668 97.392H60.3548L72.8348 116.88L84.7388 97.392H93.8588L76.9628 123.408L93.9548 150H84.0668ZM111.284 107.088C113.012 104.08 115.572 101.584 118.964 99.6C122.42 97.552 126.42 96.528 130.964 96.528C135.636 96.528 139.86 97.648 143.636 99.888C147.476 102.128 150.484 105.296 152.66 109.392C154.836 113.424 155.924 118.128 155.924 123.504C155.924 128.816 154.836 133.552 152.66 137.712C150.484 141.872 147.476 145.104 143.636 147.408C139.86 149.712 135.636 150.864 130.964 150.864C126.484 150.864 122.516 149.872 119.06 147.888C115.668 145.84 113.076 143.312 111.284 140.304V174.96H102.548V97.392H111.284V107.088ZM146.996 123.504C146.996 119.536 146.196 116.08 144.596 113.136C142.996 110.192 140.82 107.952 138.068 106.416C135.38 104.88 132.404 104.112 129.14 104.112C125.94 104.112 122.964 104.912 120.212 106.512C117.524 108.048 115.348 110.32 113.684 113.328C112.084 116.272 111.284 119.696 111.284 123.6C111.284 127.568 112.084 131.056 113.684 134.064C115.348 137.008 117.524 139.28 120.212 140.88C122.964 142.416 125.94 143.184 129.14 143.184C132.404 143.184 135.38 142.416 138.068 140.88C140.82 139.28 142.996 137.008 144.596 134.064C146.196 131.056 146.996 127.536 146.996 123.504ZM176.159 78.96V150H167.423V78.96H176.159ZM213.992 150.864C209.064 150.864 204.584 149.744 200.552 147.504C196.584 145.264 193.448 142.096 191.144 138C188.904 133.84 187.784 129.04 187.784 123.6C187.784 118.224 188.936 113.488 191.24 109.392C193.608 105.232 196.808 102.064 200.84 99.888C204.872 97.648 209.384 96.528 214.376 96.528C219.368 96.528 223.88 97.648 227.912 99.888C231.944 102.064 235.112 105.2 237.416 109.296C239.784 113.392 240.968 118.16 240.968 123.6C240.968 129.04 239.752 133.84 237.32 138C234.952 142.096 231.72 145.264 227.624 147.504C223.528 149.744 218.984 150.864 213.992 150.864ZM213.992 143.184C217.128 143.184 220.072 142.448 222.824 140.976C225.576 139.504 227.784 137.296 229.448 134.352C231.176 131.408 232.04 127.824 232.04 123.6C232.04 119.376 231.208 115.792 229.544 112.848C227.88 109.904 225.704 107.728 223.016 106.32C220.328 104.848 217.416 104.112 214.28 104.112C211.08 104.112 208.136 104.848 205.448 106.32C202.824 107.728 200.712 109.904 199.112 112.848C197.512 115.792 196.712 119.376 196.712 123.6C196.712 127.888 197.48 131.504 199.016 134.448C200.616 137.392 202.728 139.6 205.352 141.072C207.976 142.48 210.856 143.184 213.992 143.184ZM261.191 105.936C262.727 102.928 264.903 100.592 267.719 98.928C270.599 97.264 274.087 96.432 278.183 96.432V105.456H275.879C266.087 105.456 261.191 110.768 261.191 121.392V150H252.455V97.392H261.191V105.936ZM292.779 88.848C291.115 88.848 289.707 88.272 288.555 87.12C287.403 85.968 286.827 84.56 286.827 82.896C286.827 81.232 287.403 79.824 288.555 78.672C289.707 77.52 291.115 76.944 292.779 76.944C294.379 76.944 295.723 77.52 296.811 78.672C297.963 79.824 298.539 81.232 298.539 82.896C298.539 84.56 297.963 85.968 296.811 87.12C295.723 88.272 294.379 88.848 292.779 88.848ZM297.003 97.392V150H288.267V97.392H297.003ZM337.524 96.432C343.924 96.432 349.108 98.384 353.076 102.288C357.044 106.128 359.028 111.696 359.028 118.992V150H350.388V120.24C350.388 114.992 349.076 110.992 346.452 108.24C343.828 105.424 340.244 104.016 335.7 104.016C331.092 104.016 327.412 105.456 324.66 108.336C321.972 111.216 320.628 115.408 320.628 120.912V150H311.892V97.392H320.628V104.88C322.356 102.192 324.692 100.112 327.636 98.64C330.644 97.168 333.94 96.432 337.524 96.432ZM394.994 96.528C399.538 96.528 403.506 97.52 406.898 99.504C410.354 101.488 412.914 103.984 414.578 106.992V97.392H423.41V151.152C423.41 155.952 422.386 160.208 420.338 163.92C418.29 167.696 415.346 170.64 411.506 172.752C407.73 174.864 403.314 175.92 398.258 175.92C391.346 175.92 385.586 174.288 380.978 171.024C376.37 167.76 373.65 163.312 372.818 157.68H381.458C382.418 160.88 384.402 163.44 387.41 165.36C390.418 167.344 394.034 168.336 398.258 168.336C403.058 168.336 406.962 166.832 409.97 163.824C413.042 160.816 414.578 156.592 414.578 151.152V140.112C412.85 143.184 410.29 145.744 406.898 147.792C403.506 149.84 399.538 150.864 394.994 150.864C390.322 150.864 386.066 149.712 382.226 147.408C378.45 145.104 375.474 141.872 373.298 137.712C371.122 133.552 370.034 128.816 370.034 123.504C370.034 118.128 371.122 113.424 373.298 109.392C375.474 105.296 378.45 102.128 382.226 99.888C386.066 97.648 390.322 96.528 394.994 96.528ZM414.578 123.6C414.578 119.632 413.778 116.176 412.178 113.232C410.578 110.288 408.402 108.048 405.65 106.512C402.962 104.912 399.986 104.112 396.722 104.112C393.458 104.112 390.482 104.88 387.794 106.416C385.106 107.952 382.962 110.192 381.362 113.136C379.762 116.08 378.962 119.536 378.962 123.504C378.962 127.536 379.762 131.056 381.362 134.064C382.962 137.008 385.106 139.28 387.794 140.88C390.482 142.416 393.458 143.184 396.722 143.184C399.986 143.184 402.962 142.416 405.65 140.88C408.402 139.28 410.578 137.008 412.178 134.064C413.778 131.056 414.578 127.568 414.578 123.6ZM474.423 104.592V135.6C474.423 138.16 474.967 139.984 476.055 141.072C477.143 142.096 479.031 142.608 481.719 142.608H488.151V150H480.279C475.415 150 471.767 148.88 469.335 146.64C466.903 144.4 465.687 140.72 465.687 135.6V104.592H458.871V97.392H465.687V84.144H474.423V97.392H488.151V104.592H474.423ZM524.848 96.432C528.816 96.432 532.4 97.296 535.6 99.024C538.8 100.688 541.296 103.216 543.088 106.608C544.944 110 545.872 114.128 545.872 118.992V150H537.232V120.24C537.232 114.992 535.92 110.992 533.296 108.24C530.672 105.424 527.088 104.016 522.544 104.016C517.936 104.016 514.256 105.456 511.504 108.336C508.816 111.216 507.472 115.408 507.472 120.912V150H498.736V78.96H507.472V104.88C509.2 102.192 511.568 100.112 514.576 98.64C517.648 97.168 521.072 96.432 524.848 96.432ZM608.142 121.68C608.142 123.344 608.046 125.104 607.854 126.96H565.806C566.126 132.144 567.886 136.208 571.086 139.152C574.35 142.032 578.286 143.472 582.894 143.472C586.67 143.472 589.806 142.608 592.302 140.88C594.862 139.088 596.654 136.72 597.678 133.776H607.086C605.678 138.832 602.862 142.96 598.638 146.16C594.414 149.296 589.166 150.864 582.894 150.864C577.902 150.864 573.422 149.744 569.454 147.504C565.55 145.264 562.478 142.096 560.238 138C557.998 133.84 556.878 129.04 556.878 123.6C556.878 118.16 557.966 113.392 560.142 109.296C562.318 105.2 565.358 102.064 569.262 99.888C573.23 97.648 577.774 96.528 582.894 96.528C587.886 96.528 592.302 97.616 596.142 99.792C599.982 101.968 602.926 104.976 604.974 108.816C607.086 112.592 608.142 116.88 608.142 121.68ZM599.118 119.856C599.118 116.528 598.382 113.68 596.91 111.312C595.438 108.88 593.422 107.056 590.862 105.84C588.366 104.56 585.582 103.92 582.51 103.92C578.094 103.92 574.318 105.328 571.182 108.144C568.11 110.96 566.35 114.864 565.902 119.856H599.118ZM16.128 222.96V294H7.392V222.96H16.128ZM35.529 232.848C33.865 232.848 32.457 232.272 31.305 231.12C30.153 229.968 29.577 228.56 29.577 226.896C29.577 225.232 30.153 223.824 31.305 222.672C32.457 221.52 33.865 220.944 35.529 220.944C37.129 220.944 38.473 221.52 39.561 222.672C40.713 223.824 41.289 225.232 41.289 226.896C41.289 228.56 40.713 229.968 39.561 231.12C38.473 232.272 37.129 232.848 35.529 232.848ZM39.753 241.392V294H31.017V241.392H39.753ZM84.018 294L63.378 270.768V294H54.642V222.96H63.378V264.72L83.634 241.392H95.826L71.058 267.6L95.922 294H84.018ZM152.048 265.68C152.048 267.344 151.952 269.104 151.76 270.96H109.712C110.032 276.144 111.792 280.208 114.992 283.152C118.256 286.032 122.192 287.472 126.8 287.472C130.576 287.472 133.712 286.608 136.208 284.88C138.768 283.088 140.56 280.72 141.584 277.776H150.992C149.584 282.832 146.768 286.96 142.544 290.16C138.32 293.296 133.072 294.864 126.8 294.864C121.808 294.864 117.328 293.744 113.36 291.504C109.456 289.264 106.384 286.096 104.144 282C101.904 277.84 100.784 273.04 100.784 267.6C100.784 262.16 101.872 257.392 104.048 253.296C106.224 249.2 109.264 246.064 113.168 243.888C117.136 241.648 121.68 240.528 126.8 240.528C131.792 240.528 136.208 241.616 140.048 243.792C143.888 245.968 146.832 248.976 148.88 252.816C150.992 256.592 152.048 260.88 152.048 265.68ZM143.024 263.856C143.024 260.528 142.288 257.68 140.816 255.312C139.344 252.88 137.328 251.056 134.768 249.84C132.272 248.56 129.488 247.92 126.416 247.92C122 247.92 118.224 249.328 115.088 252.144C112.016 254.96 110.256 258.864 109.808 263.856H143.024ZM501.753 251.184C503.545 248.048 506.169 245.488 509.625 243.504C513.081 241.52 517.017 240.528 521.433 240.528C526.169 240.528 530.425 241.648 534.201 243.888C537.977 246.128 540.953 249.296 543.129 253.392C545.305 257.424 546.393 262.128 546.393 267.504C546.393 272.816 545.305 277.552 543.129 281.712C540.953 285.872 537.945 289.104 534.105 291.408C530.329 293.712 526.105 294.864 521.433 294.864C516.889 294.864 512.889 293.872 509.433 291.888C506.041 289.904 503.481 287.376 501.753 284.304V294H493.017V222.96H501.753V251.184ZM537.465 267.504C537.465 263.536 536.665 260.08 535.065 257.136C533.465 254.192 531.289 251.952 528.537 250.416C525.849 248.88 522.873 248.112 519.609 248.112C516.409 248.112 513.433 248.912 510.681 250.512C507.993 252.048 505.817 254.32 504.153 257.328C502.553 260.272 501.753 263.696 501.753 267.6C501.753 271.568 502.553 275.056 504.153 278.064C505.817 281.008 507.993 283.28 510.681 284.88C513.433 286.416 516.409 287.184 519.609 287.184C522.873 287.184 525.849 286.416 528.537 284.88C531.289 283.28 533.465 281.008 535.065 278.064C536.665 275.056 537.465 271.536 537.465 267.504ZM605.892 265.68C605.892 267.344 605.796 269.104 605.604 270.96H563.556C563.876 276.144 565.636 280.208 568.836 283.152C572.1 286.032 576.036 287.472 580.644 287.472C584.42 287.472 587.556 286.608 590.052 284.88C592.612 283.088 594.404 280.72 595.428 277.776H604.836C603.428 282.832 600.612 286.96 596.388 290.16C592.164 293.296 586.916 294.864 580.644 294.864C575.652 294.864 571.172 293.744 567.204 291.504C563.3 289.264 560.228 286.096 557.988 282C555.748 277.84 554.628 273.04 554.628 267.6C554.628 262.16 555.716 257.392 557.892 253.296C560.068 249.2 563.108 246.064 567.012 243.888C570.98 241.648 575.524 240.528 580.644 240.528C585.636 240.528 590.052 241.616 593.892 243.792C597.732 245.968 600.676 248.976 602.724 252.816C604.836 256.592 605.892 260.88 605.892 265.68ZM596.868 263.856C596.868 260.528 596.132 257.68 594.66 255.312C593.188 252.88 591.172 251.056 588.612 249.84C586.116 248.56 583.332 247.92 580.26 247.92C575.844 247.92 572.068 249.328 568.932 252.144C565.86 254.96 564.1 258.864 563.652 263.856H596.868ZM638.831 248.592H627.791V294H619.055V248.592H612.239V241.392H619.055V237.648C619.055 231.76 620.559 227.472 623.567 224.784C626.639 222.032 631.535 220.656 638.255 220.656V227.952C634.415 227.952 631.695 228.72 630.095 230.256C628.559 231.728 627.791 234.192 627.791 237.648V241.392H638.831V248.592ZM671.961 294.864C667.033 294.864 662.553 293.744 658.521 291.504C654.553 289.264 651.417 286.096 649.113 282C646.873 277.84 645.753 273.04 645.753 267.6C645.753 262.224 646.905 257.488 649.209 253.392C651.577 249.232 654.777 246.064 658.809 243.888C662.841 241.648 667.353 240.528 672.345 240.528C677.337 240.528 681.849 241.648 685.881 243.888C689.913 246.064 693.081 249.2 695.385 253.296C697.753 257.392 698.937 262.16 698.937 267.6C698.937 273.04 697.721 277.84 695.289 282C692.921 286.096 689.689 289.264 685.593 291.504C681.497 293.744 676.953 294.864 671.961 294.864ZM671.961 287.184C675.097 287.184 678.041 286.448 680.793 284.976C683.545 283.504 685.753 281.296 687.417 278.352C689.145 275.408 690.009 271.824 690.009 267.6C690.009 263.376 689.177 259.792 687.513 256.848C685.849 253.904 683.673 251.728 680.985 250.32C678.297 248.848 675.385 248.112 672.249 248.112C669.049 248.112 666.105 248.848 663.417 250.32C660.793 251.728 658.681 253.904 657.081 256.848C655.481 259.792 654.681 263.376 654.681 267.6C654.681 271.888 655.449 275.504 656.985 278.448C658.585 281.392 660.697 283.6 663.321 285.072C665.945 286.48 668.825 287.184 671.961 287.184ZM719.159 249.936C720.695 246.928 722.871 244.592 725.687 242.928C728.567 241.264 732.055 240.432 736.151 240.432V249.456H733.847C724.055 249.456 719.159 254.768 719.159 265.392V294H710.423V241.392H719.159V249.936ZM794.236 265.68C794.236 267.344 794.14 269.104 793.948 270.96H751.9C752.22 276.144 753.98 280.208 757.18 283.152C760.444 286.032 764.38 287.472 768.988 287.472C772.764 287.472 775.9 286.608 778.396 284.88C780.956 283.088 782.748 280.72 783.772 277.776H793.18C791.772 282.832 788.956 286.96 784.732 290.16C780.508 293.296 775.26 294.864 768.988 294.864C763.996 294.864 759.516 293.744 755.548 291.504C751.644 289.264 748.572 286.096 746.332 282C744.092 277.84 742.972 273.04 742.972 267.6C742.972 262.16 744.06 257.392 746.236 253.296C748.412 249.2 751.452 246.064 755.356 243.888C759.324 241.648 763.868 240.528 768.988 240.528C773.98 240.528 778.396 241.616 782.236 243.792C786.076 245.968 789.02 248.976 791.068 252.816C793.18 256.592 794.236 260.88 794.236 265.68ZM785.212 263.856C785.212 260.528 784.476 257.68 783.004 255.312C781.532 252.88 779.516 251.056 776.956 249.84C774.46 248.56 771.676 247.92 768.604 247.92C764.188 247.92 760.412 249.328 757.276 252.144C754.204 254.96 752.444 258.864 751.996 263.856H785.212Z" fill="white"/>
<path d="M667.635 150.672C662.963 150.672 658.739 149.872 654.963 148.272C651.251 146.672 648.307 144.368 646.131 141.36C643.955 138.352 642.835 134.8 642.771 130.704H657.171C657.363 133.456 658.323 135.632 660.051 137.232C661.843 138.832 664.275 139.632 667.347 139.632C670.483 139.632 672.947 138.896 674.739 137.424C676.531 135.888 677.427 133.904 677.427 131.472C677.427 129.488 676.819 127.856 675.603 126.576C674.387 125.296 672.851 124.304 670.995 123.6C669.203 122.832 666.707 122 663.507 121.104C659.155 119.824 655.603 118.576 652.851 117.36C650.163 116.08 647.827 114.192 645.843 111.696C643.923 109.136 642.963 105.744 642.963 101.52C642.963 97.552 643.955 94.096 645.939 91.152C647.923 88.208 650.707 85.968 654.291 84.432C657.875 82.832 661.971 82.032 666.579 82.032C673.491 82.032 679.091 83.728 683.379 87.12C687.731 90.448 690.131 95.12 690.579 101.136H675.795C675.667 98.832 674.675 96.944 672.819 95.472C671.027 93.936 668.627 93.168 665.619 93.168C662.995 93.168 660.883 93.84 659.283 95.184C657.747 96.528 656.979 98.48 656.979 101.04C656.979 102.832 657.555 104.336 658.707 105.552C659.923 106.704 661.395 107.664 663.123 108.432C664.915 109.136 667.411 109.968 670.611 110.928C674.963 112.208 678.515 113.488 681.267 114.768C684.019 116.048 686.387 117.968 688.371 120.528C690.355 123.088 691.347 126.448 691.347 130.608C691.347 134.192 690.419 137.52 688.563 140.592C686.707 143.664 683.987 146.128 680.403 147.984C676.819 149.776 672.563 150.672 667.635 150.672ZM716.247 82.992V124.464C716.247 129.008 717.431 132.496 719.799 134.928C722.167 137.296 725.495 138.48 729.783 138.48C734.135 138.48 737.495 137.296 739.863 134.928C742.231 132.496 743.415 129.008 743.415 124.464V82.992H756.951V124.368C756.951 130.064 755.703 134.896 753.207 138.864C750.775 142.768 747.479 145.712 743.319 147.696C739.223 149.68 734.647 150.672 729.591 150.672C724.599 150.672 720.055 149.68 715.959 147.696C711.927 145.712 708.727 142.768 706.359 138.864C703.991 134.896 702.807 130.064 702.807 124.368V82.992H716.247ZM827.249 150H813.809L783.377 104.016V150H769.937V82.896H783.377L813.809 128.976V82.896H827.249V150ZM217.877 240.048C224.213 240.048 229.333 242.064 233.237 246.096C237.141 250.064 239.093 255.632 239.093 262.8V294H225.653V264.624C225.653 260.4 224.597 257.168 222.485 254.928C220.373 252.624 217.493 251.472 213.845 251.472C210.133 251.472 207.189 252.624 205.013 254.928C202.901 257.168 201.845 260.4 201.845 264.624V294H188.405V240.816H201.845V247.44C203.637 245.136 205.909 243.344 208.661 242.064C211.477 240.72 214.549 240.048 217.877 240.048ZM301.314 266.256C301.314 268.176 301.186 269.904 300.93 271.44H262.05C262.37 275.28 263.714 278.288 266.082 280.464C268.45 282.64 271.362 283.728 274.818 283.728C279.81 283.728 283.362 281.584 285.474 277.296H299.97C298.434 282.416 295.49 286.64 291.138 289.968C286.786 293.232 281.442 294.864 275.106 294.864C269.986 294.864 265.378 293.744 261.282 291.504C257.25 289.2 254.082 285.968 251.778 281.808C249.538 277.648 248.418 272.848 248.418 267.408C248.418 261.904 249.538 257.072 251.778 252.912C254.018 248.752 257.154 245.552 261.186 243.312C265.218 241.072 269.858 239.952 275.106 239.952C280.162 239.952 284.674 241.04 288.642 243.216C292.674 245.392 295.778 248.496 297.954 252.528C300.194 256.496 301.314 261.072 301.314 266.256ZM287.394 262.416C287.33 258.96 286.082 256.208 283.65 254.16C281.218 252.048 278.242 250.992 274.722 250.992C271.394 250.992 268.578 252.016 266.274 254.064C264.034 256.048 262.658 258.832 262.146 262.416H287.394ZM333.3 281.616L346.74 240.816H361.044L341.364 294H325.044L305.46 240.816H319.86L333.3 281.616ZM418.033 266.256C418.033 268.176 417.905 269.904 417.649 271.44H378.769C379.089 275.28 380.433 278.288 382.801 280.464C385.169 282.64 388.081 283.728 391.537 283.728C396.529 283.728 400.081 281.584 402.193 277.296H416.689C415.153 282.416 412.209 286.64 407.857 289.968C403.505 293.232 398.161 294.864 391.825 294.864C386.705 294.864 382.097 293.744 378.001 291.504C373.969 289.2 370.801 285.968 368.497 281.808C366.257 277.648 365.137 272.848 365.137 267.408C365.137 261.904 366.257 257.072 368.497 252.912C370.737 248.752 373.873 245.552 377.905 243.312C381.937 241.072 386.577 239.952 391.825 239.952C396.881 239.952 401.393 241.04 405.361 243.216C409.393 245.392 412.497 248.496 414.673 252.528C416.913 256.496 418.033 261.072 418.033 266.256ZM404.113 262.416C404.049 258.96 402.801 256.208 400.369 254.16C397.937 252.048 394.961 250.992 391.441 250.992C388.113 250.992 385.297 252.016 382.993 254.064C380.753 256.048 379.377 258.832 378.865 262.416H404.113ZM441.283 249.072C443.011 246.256 445.251 244.048 448.003 242.448C450.819 240.848 454.019 240.048 457.603 240.048V254.16H454.051C449.827 254.16 446.627 255.152 444.451 257.136C442.339 259.12 441.283 262.576 441.283 267.504V294H427.843V240.816H441.283V249.072Z" fill="black"/>
</svg>
