<svg width="1253" height="1080" viewBox="0 0 1253 1080" fill="none" xmlns="http://www.w3.org/2000/svg">
<path d="M774 553C774 576.049 769.171 598.841 759.825 619.91C750.478 640.978 736.821 659.855 719.734 675.323C702.647 690.791 682.509 702.508 660.617 709.718C638.725 716.929 615.566 719.473 592.631 717.186C569.696 714.899 547.495 707.833 527.458 696.443C507.42 685.052 489.992 669.59 476.295 651.053C462.598 632.515 452.937 611.314 447.934 588.815C442.931 566.316 442.697 543.018 447.248 520.424L586.284 548.425C585.645 551.598 585.678 554.87 586.38 558.03C587.083 561.189 588.44 564.167 590.363 566.77C592.287 569.374 594.734 571.545 597.548 573.145C600.362 574.744 603.48 575.737 606.701 576.058C609.922 576.379 613.175 576.022 616.249 575.009C619.323 573.996 622.151 572.351 624.551 570.179C626.951 568.006 628.869 565.355 630.181 562.397C631.494 559.438 632.172 556.237 632.172 553H774Z" fill="#0788FE" fill-opacity="0.88"/>
<circle cx="1033" cy="459" r="115" fill="#E81717" fill-opacity="0.84"/>
<path d="M1260.59 450.824C1433.01 707.539 1360.48 1058.24 1098.59 1234.14C836.695 1410.04 484.616 1344.52 312.195 1087.81C139.774 831.09 212.305 480.388 474.197 304.491C736.089 128.593 1088.17 194.109 1260.59 450.824Z" fill="#794514" fill-opacity="0.4"/>
<path d="M309.128 434.192V456.56H333.512V463.76H309.128V486.8H336.392V494H300.392V426.992H336.392V434.192H309.128ZM377.067 494L364.587 474.416L352.587 494H343.467L360.459 467.888L343.467 441.392H353.355L365.835 460.88L377.739 441.392H386.859L369.963 467.408L386.955 494H377.067ZM404.284 451.088C406.012 448.08 408.572 445.584 411.964 443.6C415.42 441.552 419.42 440.528 423.964 440.528C428.636 440.528 432.86 441.648 436.636 443.888C440.476 446.128 443.484 449.296 445.66 453.392C447.836 457.424 448.924 462.128 448.924 467.504C448.924 472.816 447.836 477.552 445.66 481.712C443.484 485.872 440.476 489.104 436.636 491.408C432.86 493.712 428.636 494.864 423.964 494.864C419.484 494.864 415.516 493.872 412.06 491.888C408.668 489.84 406.076 487.312 404.284 484.304V518.96H395.548V441.392H404.284V451.088ZM439.996 467.504C439.996 463.536 439.196 460.08 437.596 457.136C435.996 454.192 433.82 451.952 431.068 450.416C428.38 448.88 425.404 448.112 422.14 448.112C418.94 448.112 415.964 448.912 413.212 450.512C410.524 452.048 408.348 454.32 406.684 457.328C405.084 460.272 404.284 463.696 404.284 467.6C404.284 471.568 405.084 475.056 406.684 478.064C408.348 481.008 410.524 483.28 413.212 484.88C415.964 486.416 418.94 487.184 422.14 487.184C425.404 487.184 428.38 486.416 431.068 484.88C433.82 483.28 435.996 481.008 437.596 478.064C439.196 475.056 439.996 471.536 439.996 467.504ZM469.159 422.96V494H460.423V422.96H469.159ZM506.992 494.864C502.064 494.864 497.584 493.744 493.552 491.504C489.584 489.264 486.448 486.096 484.144 482C481.904 477.84 480.784 473.04 480.784 467.6C480.784 462.224 481.936 457.488 484.24 453.392C486.608 449.232 489.808 446.064 493.84 443.888C497.872 441.648 502.384 440.528 507.376 440.528C512.368 440.528 516.88 441.648 520.912 443.888C524.944 446.064 528.112 449.2 530.416 453.296C532.784 457.392 533.968 462.16 533.968 467.6C533.968 473.04 532.752 477.84 530.32 482C527.952 486.096 524.72 489.264 520.624 491.504C516.528 493.744 511.984 494.864 506.992 494.864ZM506.992 487.184C510.128 487.184 513.072 486.448 515.824 484.976C518.576 483.504 520.784 481.296 522.448 478.352C524.176 475.408 525.04 471.824 525.04 467.6C525.04 463.376 524.208 459.792 522.544 456.848C520.88 453.904 518.704 451.728 516.016 450.32C513.328 448.848 510.416 448.112 507.28 448.112C504.08 448.112 501.136 448.848 498.448 450.32C495.824 451.728 493.712 453.904 492.112 456.848C490.512 459.792 489.712 463.376 489.712 467.6C489.712 471.888 490.48 475.504 492.016 478.448C493.616 481.392 495.728 483.6 498.352 485.072C500.976 486.48 503.856 487.184 506.992 487.184ZM554.191 449.936C555.727 446.928 557.903 444.592 560.719 442.928C563.599 441.264 567.087 440.432 571.183 440.432V449.456H568.879C559.087 449.456 554.191 454.768 554.191 465.392V494H545.455V441.392H554.191V449.936ZM585.779 432.848C584.115 432.848 582.707 432.272 581.555 431.12C580.403 429.968 579.827 428.56 579.827 426.896C579.827 425.232 580.403 423.824 581.555 422.672C582.707 421.52 584.115 420.944 585.779 420.944C587.379 420.944 588.723 421.52 589.811 422.672C590.963 423.824 591.539 425.232 591.539 426.896C591.539 428.56 590.963 429.968 589.811 431.12C588.723 432.272 587.379 432.848 585.779 432.848ZM590.003 441.392V494H581.267V441.392H590.003ZM630.524 440.432C636.924 440.432 642.108 442.384 646.076 446.288C650.044 450.128 652.028 455.696 652.028 462.992V494H643.388V464.24C643.388 458.992 642.076 454.992 639.452 452.24C636.828 449.424 633.244 448.016 628.7 448.016C624.092 448.016 620.412 449.456 617.66 452.336C614.972 455.216 613.628 459.408 613.628 464.912V494H604.892V441.392H613.628V448.88C615.356 446.192 617.692 444.112 620.636 442.64C623.644 441.168 626.94 440.432 630.524 440.432ZM687.994 440.528C692.538 440.528 696.506 441.52 699.898 443.504C703.354 445.488 705.914 447.984 707.578 450.992V441.392H716.41V495.152C716.41 499.952 715.386 504.208 713.338 507.92C711.29 511.696 708.346 514.64 704.506 516.752C700.73 518.864 696.314 519.92 691.258 519.92C684.346 519.92 678.586 518.288 673.978 515.024C669.37 511.76 666.65 507.312 665.818 501.68H674.458C675.418 504.88 677.402 507.44 680.41 509.36C683.418 511.344 687.034 512.336 691.258 512.336C696.058 512.336 699.962 510.832 702.97 507.824C706.042 504.816 707.578 500.592 707.578 495.152V484.112C705.85 487.184 703.29 489.744 699.898 491.792C696.506 493.84 692.538 494.864 687.994 494.864C683.322 494.864 679.066 493.712 675.226 491.408C671.45 489.104 668.474 485.872 666.298 481.712C664.122 477.552 663.034 472.816 663.034 467.504C663.034 462.128 664.122 457.424 666.298 453.392C668.474 449.296 671.45 446.128 675.226 443.888C679.066 441.648 683.322 440.528 687.994 440.528ZM707.578 467.6C707.578 463.632 706.778 460.176 705.178 457.232C703.578 454.288 701.402 452.048 698.65 450.512C695.962 448.912 692.986 448.112 689.722 448.112C686.458 448.112 683.482 448.88 680.794 450.416C678.106 451.952 675.962 454.192 674.362 457.136C672.762 460.08 671.962 463.536 671.962 467.504C671.962 471.536 672.762 475.056 674.362 478.064C675.962 481.008 678.106 483.28 680.794 484.88C683.482 486.416 686.458 487.184 689.722 487.184C692.986 487.184 695.962 486.416 698.65 484.88C701.402 483.28 703.578 481.008 705.178 478.064C706.778 475.056 707.578 471.568 707.578 467.6ZM767.423 448.592V479.6C767.423 482.16 767.967 483.984 769.055 485.072C770.143 486.096 772.031 486.608 774.719 486.608H781.151V494H773.279C768.415 494 764.767 492.88 762.335 490.64C759.903 488.4 758.687 484.72 758.687 479.6V448.592H751.871V441.392H758.687V428.144H767.423V441.392H781.151V448.592H767.423ZM817.848 440.432C821.816 440.432 825.4 441.296 828.6 443.024C831.8 444.688 834.296 447.216 836.088 450.608C837.944 454 838.872 458.128 838.872 462.992V494H830.232V464.24C830.232 458.992 828.92 454.992 826.296 452.24C823.672 449.424 820.088 448.016 815.544 448.016C810.936 448.016 807.256 449.456 804.504 452.336C801.816 455.216 800.472 459.408 800.472 464.912V494H791.736V422.96H800.472V448.88C802.2 446.192 804.568 444.112 807.576 442.64C810.648 441.168 814.072 440.432 817.848 440.432ZM901.142 465.68C901.142 467.344 901.046 469.104 900.854 470.96H858.806C859.126 476.144 860.886 480.208 864.086 483.152C867.35 486.032 871.286 487.472 875.894 487.472C879.67 487.472 882.806 486.608 885.302 484.88C887.862 483.088 889.654 480.72 890.678 477.776H900.086C898.678 482.832 895.862 486.96 891.638 490.16C887.414 493.296 882.166 494.864 875.894 494.864C870.902 494.864 866.422 493.744 862.454 491.504C858.55 489.264 855.478 486.096 853.238 482C850.998 477.84 849.878 473.04 849.878 467.6C849.878 462.16 850.966 457.392 853.142 453.296C855.318 449.2 858.358 446.064 862.262 443.888C866.23 441.648 870.774 440.528 875.894 440.528C880.886 440.528 885.302 441.616 889.142 443.792C892.982 445.968 895.926 448.976 897.974 452.816C900.086 456.592 901.142 460.88 901.142 465.68ZM892.118 463.856C892.118 460.528 891.382 457.68 889.91 455.312C888.438 452.88 886.422 451.056 883.862 449.84C881.366 448.56 878.582 447.92 875.51 447.92C871.094 447.92 867.318 449.328 864.182 452.144C861.11 454.96 859.35 458.864 858.902 463.856H892.118ZM309.128 566.96V638H300.392V566.96H309.128ZM328.529 576.848C326.865 576.848 325.457 576.272 324.305 575.12C323.153 573.968 322.577 572.56 322.577 570.896C322.577 569.232 323.153 567.824 324.305 566.672C325.457 565.52 326.865 564.944 328.529 564.944C330.129 564.944 331.473 565.52 332.561 566.672C333.713 567.824 334.289 569.232 334.289 570.896C334.289 572.56 333.713 573.968 332.561 575.12C331.473 576.272 330.129 576.848 328.529 576.848ZM332.753 585.392V638H324.017V585.392H332.753ZM377.018 638L356.378 614.768V638H347.642V566.96H356.378V608.72L376.634 585.392H388.826L364.058 611.6L388.922 638H377.018ZM445.048 609.68C445.048 611.344 444.952 613.104 444.76 614.96H402.712C403.032 620.144 404.792 624.208 407.992 627.152C411.256 630.032 415.192 631.472 419.8 631.472C423.576 631.472 426.712 630.608 429.208 628.88C431.768 627.088 433.56 624.72 434.584 621.776H443.992C442.584 626.832 439.768 630.96 435.544 634.16C431.32 637.296 426.072 638.864 419.8 638.864C414.808 638.864 410.328 637.744 406.36 635.504C402.456 633.264 399.384 630.096 397.144 626C394.904 621.84 393.784 617.04 393.784 611.6C393.784 606.16 394.872 601.392 397.048 597.296C399.224 593.2 402.264 590.064 406.168 587.888C410.136 585.648 414.68 584.528 419.8 584.528C424.792 584.528 429.208 585.616 433.048 587.792C436.888 589.968 439.832 592.976 441.88 596.816C443.992 600.592 445.048 604.88 445.048 609.68ZM436.024 607.856C436.024 604.528 435.288 601.68 433.816 599.312C432.344 596.88 430.328 595.056 427.768 593.84C425.272 592.56 422.488 591.92 419.416 591.92C415 591.92 411.224 593.328 408.088 596.144C405.016 598.96 403.256 602.864 402.808 607.856H436.024ZM794.753 595.184C796.545 592.048 799.169 589.488 802.625 587.504C806.081 585.52 810.017 584.528 814.433 584.528C819.169 584.528 823.425 585.648 827.201 587.888C830.977 590.128 833.953 593.296 836.129 597.392C838.305 601.424 839.393 606.128 839.393 611.504C839.393 616.816 838.305 621.552 836.129 625.712C833.953 629.872 830.945 633.104 827.105 635.408C823.329 637.712 819.105 638.864 814.433 638.864C809.889 638.864 805.889 637.872 802.433 635.888C799.041 633.904 796.481 631.376 794.753 628.304V638H786.017V566.96H794.753V595.184ZM830.465 611.504C830.465 607.536 829.665 604.08 828.065 601.136C826.465 598.192 824.289 595.952 821.537 594.416C818.849 592.88 815.873 592.112 812.609 592.112C809.409 592.112 806.433 592.912 803.681 594.512C800.993 596.048 798.817 598.32 797.153 601.328C795.553 604.272 794.753 607.696 794.753 611.6C794.753 615.568 795.553 619.056 797.153 622.064C798.817 625.008 800.993 627.28 803.681 628.88C806.433 630.416 809.409 631.184 812.609 631.184C815.873 631.184 818.849 630.416 821.537 628.88C824.289 627.28 826.465 625.008 828.065 622.064C829.665 619.056 830.465 615.536 830.465 611.504ZM898.892 609.68C898.892 611.344 898.796 613.104 898.604 614.96H856.556C856.876 620.144 858.636 624.208 861.836 627.152C865.1 630.032 869.036 631.472 873.644 631.472C877.42 631.472 880.556 630.608 883.052 628.88C885.612 627.088 887.404 624.72 888.428 621.776H897.836C896.428 626.832 893.612 630.96 889.388 634.16C885.164 637.296 879.916 638.864 873.644 638.864C868.652 638.864 864.172 637.744 860.204 635.504C856.3 633.264 853.228 630.096 850.988 626C848.748 621.84 847.628 617.04 847.628 611.6C847.628 606.16 848.716 601.392 850.892 597.296C853.068 593.2 856.108 590.064 860.012 587.888C863.98 585.648 868.524 584.528 873.644 584.528C878.636 584.528 883.052 585.616 886.892 587.792C890.732 589.968 893.676 592.976 895.724 596.816C897.836 600.592 898.892 604.88 898.892 609.68ZM889.868 607.856C889.868 604.528 889.132 601.68 887.66 599.312C886.188 596.88 884.172 595.056 881.612 593.84C879.116 592.56 876.332 591.92 873.26 591.92C868.844 591.92 865.068 593.328 861.932 596.144C858.86 598.96 857.1 602.864 856.652 607.856H889.868ZM931.831 592.592H920.791V638H912.055V592.592H905.239V585.392H912.055V581.648C912.055 575.76 913.559 571.472 916.567 568.784C919.639 566.032 924.535 564.656 931.255 564.656V571.952C927.415 571.952 924.695 572.72 923.095 574.256C921.559 575.728 920.791 578.192 920.791 581.648V585.392H931.831V592.592ZM964.961 638.864C960.033 638.864 955.553 637.744 951.521 635.504C947.553 633.264 944.417 630.096 942.113 626C939.873 621.84 938.753 617.04 938.753 611.6C938.753 606.224 939.905 601.488 942.209 597.392C944.577 593.232 947.777 590.064 951.809 587.888C955.841 585.648 960.353 584.528 965.345 584.528C970.337 584.528 974.849 585.648 978.881 587.888C982.913 590.064 986.081 593.2 988.385 597.296C990.753 601.392 991.937 606.16 991.937 611.6C991.937 617.04 990.721 621.84 988.289 626C985.921 630.096 982.689 633.264 978.593 635.504C974.497 637.744 969.953 638.864 964.961 638.864ZM964.961 631.184C968.097 631.184 971.041 630.448 973.793 628.976C976.545 627.504 978.753 625.296 980.417 622.352C982.145 619.408 983.009 615.824 983.009 611.6C983.009 607.376 982.177 603.792 980.513 600.848C978.849 597.904 976.673 595.728 973.985 594.32C971.297 592.848 968.385 592.112 965.249 592.112C962.049 592.112 959.105 592.848 956.417 594.32C953.793 595.728 951.681 597.904 950.081 600.848C948.481 603.792 947.681 607.376 947.681 611.6C947.681 615.888 948.449 619.504 949.985 622.448C951.585 625.392 953.697 627.6 956.321 629.072C958.945 630.48 961.825 631.184 964.961 631.184ZM1012.16 593.936C1013.7 590.928 1015.87 588.592 1018.69 586.928C1021.57 585.264 1025.06 584.432 1029.15 584.432V593.456H1026.85C1017.06 593.456 1012.16 598.768 1012.16 609.392V638H1003.42V585.392H1012.16V593.936ZM1087.24 609.68C1087.24 611.344 1087.14 613.104 1086.95 614.96H1044.9C1045.22 620.144 1046.98 624.208 1050.18 627.152C1053.44 630.032 1057.38 631.472 1061.99 631.472C1065.76 631.472 1068.9 630.608 1071.4 628.88C1073.96 627.088 1075.75 624.72 1076.77 621.776H1086.18C1084.77 626.832 1081.96 630.96 1077.73 634.16C1073.51 637.296 1068.26 638.864 1061.99 638.864C1057 638.864 1052.52 637.744 1048.55 635.504C1044.64 633.264 1041.57 630.096 1039.33 626C1037.09 621.84 1035.97 617.04 1035.97 611.6C1035.97 606.16 1037.06 601.392 1039.24 597.296C1041.41 593.2 1044.45 590.064 1048.36 587.888C1052.32 585.648 1056.87 584.528 1061.99 584.528C1066.98 584.528 1071.4 585.616 1075.24 587.792C1079.08 589.968 1082.02 592.976 1084.07 596.816C1086.18 600.592 1087.24 604.88 1087.24 609.68ZM1078.21 607.856C1078.21 604.528 1077.48 601.68 1076 599.312C1074.53 596.88 1072.52 595.056 1069.96 593.84C1067.46 592.56 1064.68 591.92 1061.6 591.92C1057.19 591.92 1053.41 593.328 1050.28 596.144C1047.2 598.96 1045.44 602.864 1045 607.856H1078.21Z" fill="white"/>
<path d="M960.635 494.672C955.963 494.672 951.739 493.872 947.963 492.272C944.251 490.672 941.307 488.368 939.131 485.36C936.955 482.352 935.835 478.8 935.771 474.704H950.171C950.363 477.456 951.323 479.632 953.051 481.232C954.843 482.832 957.275 483.632 960.347 483.632C963.483 483.632 965.947 482.896 967.739 481.424C969.531 479.888 970.427 477.904 970.427 475.472C970.427 473.488 969.819 471.856 968.603 470.576C967.387 469.296 965.851 468.304 963.995 467.6C962.203 466.832 959.707 466 956.507 465.104C952.155 463.824 948.603 462.576 945.851 461.36C943.163 460.08 940.827 458.192 938.843 455.696C936.923 453.136 935.963 449.744 935.963 445.52C935.963 441.552 936.955 438.096 938.939 435.152C940.923 432.208 943.707 429.968 947.291 428.432C950.875 426.832 954.971 426.032 959.579 426.032C966.491 426.032 972.091 427.728 976.379 431.12C980.731 434.448 983.131 439.12 983.579 445.136H968.795C968.667 442.832 967.675 440.944 965.819 439.472C964.027 437.936 961.627 437.168 958.619 437.168C955.995 437.168 953.883 437.84 952.283 439.184C950.747 440.528 949.979 442.48 949.979 445.04C949.979 446.832 950.555 448.336 951.707 449.552C952.923 450.704 954.395 451.664 956.123 452.432C957.915 453.136 960.411 453.968 963.611 454.928C967.963 456.208 971.515 457.488 974.267 458.768C977.019 460.048 979.387 461.968 981.371 464.528C983.355 467.088 984.347 470.448 984.347 474.608C984.347 478.192 983.419 481.52 981.563 484.592C979.707 487.664 976.987 490.128 973.403 491.984C969.819 493.776 965.563 494.672 960.635 494.672ZM1009.25 426.992V468.464C1009.25 473.008 1010.43 476.496 1012.8 478.928C1015.17 481.296 1018.5 482.48 1022.78 482.48C1027.14 482.48 1030.5 481.296 1032.86 478.928C1035.23 476.496 1036.42 473.008 1036.42 468.464V426.992H1049.95V468.368C1049.95 474.064 1048.7 478.896 1046.21 482.864C1043.78 486.768 1040.48 489.712 1036.32 491.696C1032.22 493.68 1027.65 494.672 1022.59 494.672C1017.6 494.672 1013.06 493.68 1008.96 491.696C1004.93 489.712 1001.73 486.768 999.359 482.864C996.991 478.896 995.807 474.064 995.807 468.368V426.992H1009.25ZM1120.25 494H1106.81L1076.38 448.016V494H1062.94V426.896H1076.38L1106.81 472.976V426.896H1120.25V494ZM510.877 584.048C517.213 584.048 522.333 586.064 526.237 590.096C530.141 594.064 532.093 599.632 532.093 606.8V638H518.653V608.624C518.653 604.4 517.597 601.168 515.485 598.928C513.373 596.624 510.493 595.472 506.845 595.472C503.133 595.472 500.189 596.624 498.013 598.928C495.901 601.168 494.845 604.4 494.845 608.624V638H481.405V584.816H494.845V591.44C496.637 589.136 498.909 587.344 501.661 586.064C504.477 584.72 507.549 584.048 510.877 584.048ZM594.314 610.256C594.314 612.176 594.186 613.904 593.93 615.44H555.05C555.37 619.28 556.714 622.288 559.082 624.464C561.45 626.64 564.362 627.728 567.818 627.728C572.81 627.728 576.362 625.584 578.474 621.296H592.97C591.434 626.416 588.49 630.64 584.138 633.968C579.786 637.232 574.442 638.864 568.106 638.864C562.986 638.864 558.378 637.744 554.282 635.504C550.25 633.2 547.082 629.968 544.778 625.808C542.538 621.648 541.418 616.848 541.418 611.408C541.418 605.904 542.538 601.072 544.778 596.912C547.018 592.752 550.154 589.552 554.186 587.312C558.218 585.072 562.858 583.952 568.106 583.952C573.162 583.952 577.674 585.04 581.642 587.216C585.674 589.392 588.778 592.496 590.954 596.528C593.194 600.496 594.314 605.072 594.314 610.256ZM580.394 606.416C580.33 602.96 579.082 600.208 576.65 598.16C574.218 596.048 571.242 594.992 567.722 594.992C564.394 594.992 561.578 596.016 559.274 598.064C557.034 600.048 555.658 602.832 555.146 606.416H580.394ZM626.3 625.616L639.74 584.816H654.044L634.364 638H618.044L598.46 584.816H612.86L626.3 625.616ZM711.033 610.256C711.033 612.176 710.905 613.904 710.649 615.44H671.769C672.089 619.28 673.433 622.288 675.801 624.464C678.169 626.64 681.081 627.728 684.537 627.728C689.529 627.728 693.081 625.584 695.193 621.296H709.689C708.153 626.416 705.209 630.64 700.857 633.968C696.505 637.232 691.161 638.864 684.825 638.864C679.705 638.864 675.097 637.744 671.001 635.504C666.969 633.2 663.801 629.968 661.497 625.808C659.257 621.648 658.137 616.848 658.137 611.408C658.137 605.904 659.257 601.072 661.497 596.912C663.737 592.752 666.873 589.552 670.905 587.312C674.937 585.072 679.577 583.952 684.825 583.952C689.881 583.952 694.393 585.04 698.361 587.216C702.393 589.392 705.497 592.496 707.673 596.528C709.913 600.496 711.033 605.072 711.033 610.256ZM697.113 606.416C697.049 602.96 695.801 600.208 693.369 598.16C690.937 596.048 687.961 594.992 684.441 594.992C681.113 594.992 678.297 596.016 675.993 598.064C673.753 600.048 672.377 602.832 671.865 606.416H697.113ZM734.283 593.072C736.011 590.256 738.251 588.048 741.003 586.448C743.819 584.848 747.019 584.048 750.603 584.048V598.16H747.051C742.827 598.16 739.627 599.152 737.451 601.136C735.339 603.12 734.283 606.576 734.283 611.504V638H720.843V584.816H734.283V593.072Z" fill="black"/>
<path d="M313.584 722.908C316.32 722.908 318.684 723.424 320.676 724.456C322.692 725.464 324.228 726.916 325.284 728.812C326.364 730.708 326.904 732.94 326.904 735.508C326.904 738.076 326.364 740.308 325.284 742.204C324.228 744.076 322.692 745.516 320.676 746.524C318.684 747.508 316.32 748 313.584 748H305.772V722.908H313.584ZM313.584 745.3C316.824 745.3 319.296 744.448 321 742.744C322.704 741.016 323.556 738.604 323.556 735.508C323.556 732.388 322.692 729.952 320.964 728.2C319.26 726.448 316.8 725.572 313.584 725.572H309.048V745.3H313.584ZM332.917 725.068C332.293 725.068 331.765 724.852 331.333 724.42C330.901 723.988 330.685 723.46 330.685 722.836C330.685 722.212 330.901 721.684 331.333 721.252C331.765 720.82 332.293 720.604 332.917 720.604C333.517 720.604 334.021 720.82 334.429 721.252C334.861 721.684 335.077 722.212 335.077 722.836C335.077 723.46 334.861 723.988 334.429 724.42C334.021 724.852 333.517 725.068 332.917 725.068ZM334.501 728.272V748H331.225V728.272H334.501ZM347.069 748.324C345.557 748.324 344.201 748.072 343.001 747.568C341.801 747.04 340.853 746.32 340.157 745.408C339.461 744.472 339.077 743.404 339.005 742.204H342.389C342.485 743.188 342.941 743.992 343.757 744.616C344.597 745.24 345.689 745.552 347.033 745.552C348.281 745.552 349.265 745.276 349.985 744.724C350.705 744.172 351.065 743.476 351.065 742.636C351.065 741.772 350.681 741.136 349.913 740.728C349.145 740.296 347.957 739.876 346.349 739.468C344.885 739.084 343.685 738.7 342.749 738.316C341.837 737.908 341.045 737.32 340.373 736.552C339.725 735.76 339.401 734.728 339.401 733.456C339.401 732.448 339.701 731.524 340.301 730.684C340.901 729.844 341.753 729.184 342.857 728.704C343.961 728.2 345.221 727.948 346.637 727.948C348.821 727.948 350.585 728.5 351.929 729.604C353.273 730.708 353.993 732.22 354.089 734.14H350.813C350.741 733.108 350.321 732.28 349.553 731.656C348.809 731.032 347.801 730.72 346.529 730.72C345.353 730.72 344.417 730.972 343.721 731.476C343.025 731.98 342.677 732.64 342.677 733.456C342.677 734.104 342.881 734.644 343.289 735.076C343.721 735.484 344.249 735.82 344.873 736.084C345.521 736.324 346.409 736.6 347.537 736.912C348.953 737.296 350.105 737.68 350.993 738.064C351.881 738.424 352.637 738.976 353.261 739.72C353.909 740.464 354.245 741.436 354.269 742.636C354.269 743.716 353.969 744.688 353.369 745.552C352.769 746.416 351.917 747.1 350.813 747.604C349.733 748.084 348.485 748.324 347.069 748.324ZM357.669 738.1C357.669 736.06 358.077 734.284 358.893 732.772C359.709 731.236 360.837 730.048 362.277 729.208C363.741 728.368 365.409 727.948 367.281 727.948C369.705 727.948 371.697 728.536 373.257 729.712C374.841 730.888 375.885 732.52 376.389 734.608H372.861C372.525 733.408 371.865 732.46 370.881 731.764C369.921 731.068 368.721 730.72 367.281 730.72C365.409 730.72 363.897 731.368 362.745 732.664C361.593 733.936 361.017 735.748 361.017 738.1C361.017 740.476 361.593 742.312 362.745 743.608C363.897 744.904 365.409 745.552 367.281 745.552C368.721 745.552 369.921 745.216 370.881 744.544C371.841 743.872 372.501 742.912 372.861 741.664H376.389C375.861 743.68 374.805 745.3 373.221 746.524C371.637 747.724 369.657 748.324 367.281 748.324C365.409 748.324 363.741 747.904 362.277 747.064C360.837 746.224 359.709 745.036 358.893 743.5C358.077 741.964 357.669 740.164 357.669 738.1ZM389.364 748.324C387.516 748.324 385.836 747.904 384.324 747.064C382.836 746.224 381.66 745.036 380.796 743.5C379.956 741.94 379.536 740.14 379.536 738.1C379.536 736.084 379.968 734.308 380.832 732.772C381.72 731.212 382.92 730.024 384.432 729.208C385.944 728.368 387.636 727.948 389.508 727.948C391.38 727.948 393.072 728.368 394.584 729.208C396.096 730.024 397.284 731.2 398.148 732.736C399.036 734.272 399.48 736.06 399.48 738.1C399.48 740.14 399.024 741.94 398.112 743.5C397.224 745.036 396.012 746.224 394.476 747.064C392.94 747.904 391.236 748.324 389.364 748.324ZM389.364 745.444C390.54 745.444 391.644 745.168 392.676 744.616C393.708 744.064 394.536 743.236 395.16 742.132C395.808 741.028 396.132 739.684 396.132 738.1C396.132 736.516 395.82 735.172 395.196 734.068C394.572 732.964 393.756 732.148 392.748 731.62C391.74 731.068 390.648 730.792 389.472 730.792C388.272 730.792 387.168 731.068 386.16 731.62C385.176 732.148 384.384 732.964 383.784 734.068C383.184 735.172 382.884 736.516 382.884 738.1C382.884 739.708 383.172 741.064 383.748 742.168C384.348 743.272 385.14 744.1 386.124 744.652C387.108 745.18 388.188 745.444 389.364 745.444ZM411.132 744.976L417.252 728.272H420.744L413.004 748H409.188L401.448 728.272H404.976L411.132 744.976ZM441.967 737.38C441.967 738.004 441.931 738.664 441.859 739.36H426.091C426.211 741.304 426.871 742.828 428.071 743.932C429.295 745.012 430.771 745.552 432.499 745.552C433.915 745.552 435.091 745.228 436.027 744.58C436.987 743.908 437.659 743.02 438.043 741.916H441.571C441.043 743.812 439.987 745.36 438.403 746.56C436.819 747.736 434.851 748.324 432.499 748.324C430.627 748.324 428.947 747.904 427.459 747.064C425.995 746.224 424.843 745.036 424.003 743.5C423.163 741.94 422.743 740.14 422.743 738.1C422.743 736.06 423.151 734.272 423.967 732.736C424.783 731.2 425.923 730.024 427.387 729.208C428.875 728.368 430.579 727.948 432.499 727.948C434.371 727.948 436.027 728.356 437.467 729.172C438.907 729.988 440.011 731.116 440.779 732.556C441.571 733.972 441.967 735.58 441.967 737.38ZM438.583 736.696C438.583 735.448 438.307 734.38 437.755 733.492C437.203 732.58 436.447 731.896 435.487 731.44C434.551 730.96 433.507 730.72 432.355 730.72C430.699 730.72 429.283 731.248 428.107 732.304C426.955 733.36 426.295 734.824 426.127 736.696H438.583ZM449.568 731.476C450.144 730.348 450.96 729.472 452.016 728.848C453.096 728.224 454.404 727.912 455.94 727.912V731.296H455.076C451.404 731.296 449.568 733.288 449.568 737.272V748H446.292V728.272H449.568V731.476ZM476.303 748.324C474.791 748.324 473.435 748.072 472.235 747.568C471.035 747.04 470.087 746.32 469.391 745.408C468.695 744.472 468.311 743.404 468.239 742.204H471.623C471.719 743.188 472.175 743.992 472.991 744.616C473.831 745.24 474.923 745.552 476.267 745.552C477.515 745.552 478.499 745.276 479.219 744.724C479.939 744.172 480.299 743.476 480.299 742.636C480.299 741.772 479.915 741.136 479.147 740.728C478.379 740.296 477.191 739.876 475.583 739.468C474.119 739.084 472.919 738.7 471.983 738.316C471.071 737.908 470.279 737.32 469.607 736.552C468.959 735.76 468.635 734.728 468.635 733.456C468.635 732.448 468.935 731.524 469.535 730.684C470.135 729.844 470.987 729.184 472.091 728.704C473.195 728.2 474.455 727.948 475.871 727.948C478.055 727.948 479.819 728.5 481.163 729.604C482.507 730.708 483.227 732.22 483.323 734.14H480.047C479.975 733.108 479.555 732.28 478.787 731.656C478.043 731.032 477.035 730.72 475.763 730.72C474.587 730.72 473.651 730.972 472.955 731.476C472.259 731.98 471.911 732.64 471.911 733.456C471.911 734.104 472.115 734.644 472.523 735.076C472.955 735.484 473.483 735.82 474.107 736.084C474.755 736.324 475.643 736.6 476.771 736.912C478.187 737.296 479.339 737.68 480.227 738.064C481.115 738.424 481.871 738.976 482.495 739.72C483.143 740.464 483.479 741.436 483.503 742.636C483.503 743.716 483.203 744.688 482.603 745.552C482.003 746.416 481.151 747.1 480.047 747.604C478.967 748.084 477.719 748.324 476.303 748.324ZM496.731 748.324C494.883 748.324 493.203 747.904 491.691 747.064C490.203 746.224 489.027 745.036 488.163 743.5C487.323 741.94 486.903 740.14 486.903 738.1C486.903 736.084 487.335 734.308 488.199 732.772C489.087 731.212 490.287 730.024 491.799 729.208C493.311 728.368 495.003 727.948 496.875 727.948C498.747 727.948 500.439 728.368 501.951 729.208C503.463 730.024 504.651 731.2 505.515 732.736C506.403 734.272 506.847 736.06 506.847 738.1C506.847 740.14 506.391 741.94 505.479 743.5C504.591 745.036 503.379 746.224 501.843 747.064C500.307 747.904 498.603 748.324 496.731 748.324ZM496.731 745.444C497.907 745.444 499.011 745.168 500.043 744.616C501.075 744.064 501.903 743.236 502.527 742.132C503.175 741.028 503.499 739.684 503.499 738.1C503.499 736.516 503.187 735.172 502.563 734.068C501.939 732.964 501.123 732.148 500.115 731.62C499.107 731.068 498.015 730.792 496.839 730.792C495.639 730.792 494.535 731.068 493.527 731.62C492.543 732.148 491.751 732.964 491.151 734.068C490.551 735.172 490.251 736.516 490.251 738.1C490.251 739.708 490.539 741.064 491.115 742.168C491.715 743.272 492.507 744.1 493.491 744.652C494.475 745.18 495.555 745.444 496.731 745.444ZM514.431 721.36V748H511.155V721.36H514.431ZM518.79 738.064C518.79 736.048 519.198 734.284 520.014 732.772C520.83 731.236 521.946 730.048 523.362 729.208C524.802 728.368 526.398 727.948 528.15 727.948C529.878 727.948 531.378 728.32 532.65 729.064C533.922 729.808 534.87 730.744 535.494 731.872V728.272H538.806V748H535.494V744.328C534.846 745.48 533.874 746.44 532.578 747.208C531.306 747.952 529.818 748.324 528.114 748.324C526.362 748.324 524.778 747.892 523.362 747.028C521.946 746.164 520.83 744.952 520.014 743.392C519.198 741.832 518.79 740.056 518.79 738.064ZM535.494 738.1C535.494 736.612 535.194 735.316 534.594 734.212C533.994 733.108 533.178 732.268 532.146 731.692C531.138 731.092 530.022 730.792 528.798 730.792C527.574 730.792 526.458 731.08 525.45 731.656C524.442 732.232 523.638 733.072 523.038 734.176C522.438 735.28 522.138 736.576 522.138 738.064C522.138 739.576 522.438 740.896 523.038 742.024C523.638 743.128 524.442 743.98 525.45 744.58C526.458 745.156 527.574 745.444 528.798 745.444C530.022 745.444 531.138 745.156 532.146 744.58C533.178 743.98 533.994 743.128 534.594 742.024C535.194 740.896 535.494 739.588 535.494 738.1ZM547.618 731.476C548.194 730.348 549.01 729.472 550.066 728.848C551.146 728.224 552.454 727.912 553.99 727.912V731.296H553.126C549.454 731.296 547.618 733.288 547.618 737.272V748H544.342V728.272H547.618V731.476ZM570.646 731.908C571.294 730.78 572.254 729.844 573.526 729.1C574.822 728.332 576.322 727.948 578.026 727.948C579.778 727.948 581.362 728.368 582.778 729.208C584.218 730.048 585.346 731.236 586.162 732.772C586.978 734.284 587.386 736.048 587.386 738.064C587.386 740.056 586.978 741.832 586.162 743.392C585.346 744.952 584.218 746.164 582.778 747.028C581.362 747.892 579.778 748.324 578.026 748.324C576.346 748.324 574.858 747.952 573.562 747.208C572.29 746.44 571.318 745.492 570.646 744.364V757.36H567.37V728.272H570.646V731.908ZM584.038 738.064C584.038 736.576 583.738 735.28 583.138 734.176C582.538 733.072 581.722 732.232 580.69 731.656C579.682 731.08 578.566 730.792 577.342 730.792C576.142 730.792 575.026 731.092 573.994 731.692C572.986 732.268 572.17 733.12 571.546 734.248C570.946 735.352 570.646 736.636 570.646 738.1C570.646 739.588 570.946 740.896 571.546 742.024C572.17 743.128 572.986 743.98 573.994 744.58C575.026 745.156 576.142 745.444 577.342 745.444C578.566 745.444 579.682 745.156 580.69 744.58C581.722 743.98 582.538 743.128 583.138 742.024C583.738 740.896 584.038 739.576 584.038 738.064ZM594.974 731.476C595.55 730.348 596.366 729.472 597.422 728.848C598.502 728.224 599.81 727.912 601.346 727.912V731.296H600.482C596.81 731.296 594.974 733.288 594.974 737.272V748H591.698V728.272H594.974V731.476ZM613.731 748.324C611.883 748.324 610.203 747.904 608.691 747.064C607.203 746.224 606.027 745.036 605.163 743.5C604.323 741.94 603.903 740.14 603.903 738.1C603.903 736.084 604.335 734.308 605.199 732.772C606.087 731.212 607.287 730.024 608.799 729.208C610.311 728.368 612.003 727.948 613.875 727.948C615.747 727.948 617.439 728.368 618.951 729.208C620.463 730.024 621.651 731.2 622.515 732.736C623.403 734.272 623.847 736.06 623.847 738.1C623.847 740.14 623.391 741.94 622.479 743.5C621.591 745.036 620.379 746.224 618.843 747.064C617.307 747.904 615.603 748.324 613.731 748.324ZM613.731 745.444C614.907 745.444 616.011 745.168 617.043 744.616C618.075 744.064 618.903 743.236 619.527 742.132C620.175 741.028 620.499 739.684 620.499 738.1C620.499 736.516 620.187 735.172 619.563 734.068C618.939 732.964 618.123 732.148 617.115 731.62C616.107 731.068 615.015 730.792 613.839 730.792C612.639 730.792 611.535 731.068 610.527 731.62C609.543 732.148 608.751 732.964 608.151 734.068C607.551 735.172 607.251 736.516 607.251 738.1C607.251 739.708 607.539 741.064 608.115 742.168C608.715 743.272 609.507 744.1 610.491 744.652C611.475 745.18 612.555 745.444 613.731 745.444ZM631.431 731.944C632.103 730.768 633.087 729.808 634.383 729.064C635.679 728.32 637.155 727.948 638.811 727.948C640.587 727.948 642.183 728.368 643.599 729.208C645.015 730.048 646.131 731.236 646.947 732.772C647.763 734.284 648.171 736.048 648.171 738.064C648.171 740.056 647.763 741.832 646.947 743.392C646.131 744.952 645.003 746.164 643.563 747.028C642.147 747.892 640.563 748.324 638.811 748.324C637.107 748.324 635.607 747.952 634.311 747.208C633.039 746.464 632.079 745.516 631.431 744.364V748H628.155V721.36H631.431V731.944ZM644.823 738.064C644.823 736.576 644.523 735.28 643.923 734.176C643.323 733.072 642.507 732.232 641.475 731.656C640.467 731.08 639.351 730.792 638.127 730.792C636.927 730.792 635.811 731.092 634.779 731.692C633.771 732.268 632.955 733.12 632.331 734.248C631.731 735.352 631.431 736.636 631.431 738.1C631.431 739.588 631.731 740.896 632.331 742.024C632.955 743.128 633.771 743.98 634.779 744.58C635.811 745.156 636.927 745.444 638.127 745.444C639.351 745.444 640.467 745.156 641.475 744.58C642.507 743.98 643.323 743.128 643.923 742.024C644.523 740.896 644.823 739.576 644.823 738.064ZM670.483 737.38C670.483 738.004 670.447 738.664 670.375 739.36H654.607C654.727 741.304 655.387 742.828 656.587 743.932C657.811 745.012 659.287 745.552 661.015 745.552C662.431 745.552 663.607 745.228 664.543 744.58C665.503 743.908 666.175 743.02 666.559 741.916H670.087C669.559 743.812 668.503 745.36 666.919 746.56C665.335 747.736 663.367 748.324 661.015 748.324C659.143 748.324 657.463 747.904 655.975 747.064C654.511 746.224 653.359 745.036 652.519 743.5C651.679 741.94 651.259 740.14 651.259 738.1C651.259 736.06 651.667 734.272 652.483 732.736C653.299 731.2 654.439 730.024 655.903 729.208C657.391 728.368 659.095 727.948 661.015 727.948C662.887 727.948 664.543 728.356 665.983 729.172C667.423 729.988 668.527 731.116 669.295 732.556C670.087 733.972 670.483 735.58 670.483 737.38ZM667.099 736.696C667.099 735.448 666.823 734.38 666.271 733.492C665.719 732.58 664.963 731.896 664.003 731.44C663.067 730.96 662.023 730.72 660.871 730.72C659.215 730.72 657.799 731.248 656.623 732.304C655.471 733.36 654.811 734.824 654.643 736.696H667.099ZM681.791 748.324C680.279 748.324 678.923 748.072 677.723 747.568C676.523 747.04 675.575 746.32 674.879 745.408C674.183 744.472 673.799 743.404 673.727 742.204H677.111C677.207 743.188 677.663 743.992 678.479 744.616C679.319 745.24 680.411 745.552 681.755 745.552C683.003 745.552 683.987 745.276 684.707 744.724C685.427 744.172 685.787 743.476 685.787 742.636C685.787 741.772 685.403 741.136 684.635 740.728C683.867 740.296 682.679 739.876 681.071 739.468C679.607 739.084 678.407 738.7 677.471 738.316C676.559 737.908 675.767 737.32 675.095 736.552C674.447 735.76 674.123 734.728 674.123 733.456C674.123 732.448 674.423 731.524 675.023 730.684C675.623 729.844 676.475 729.184 677.579 728.704C678.683 728.2 679.943 727.948 681.359 727.948C683.543 727.948 685.307 728.5 686.651 729.604C687.995 730.708 688.715 732.22 688.811 734.14H685.535C685.463 733.108 685.043 732.28 684.275 731.656C683.531 731.032 682.523 730.72 681.251 730.72C680.075 730.72 679.139 730.972 678.443 731.476C677.747 731.98 677.399 732.64 677.399 733.456C677.399 734.104 677.603 734.644 678.011 735.076C678.443 735.484 678.971 735.82 679.595 736.084C680.243 736.324 681.131 736.6 682.259 736.912C683.675 737.296 684.827 737.68 685.715 738.064C686.603 738.424 687.359 738.976 687.983 739.72C688.631 740.464 688.967 741.436 688.991 742.636C688.991 743.716 688.691 744.688 688.091 745.552C687.491 746.416 686.639 747.1 685.535 747.604C684.455 748.084 683.207 748.324 681.791 748.324Z" fill="white"/>
</svg>
